<?xml version="1.0" encoding="utf-8"?>
<!-- Generator: Adobe Illustrator 17.0.0, SVG Export Plug-In . SVG Version: 6.00 Build 0)  -->
<!DOCTYPE svg PUBLIC "-//W3C//DTD SVG 1.1//EN" "http://www.w3.org/Graphics/SVG/1.1/DTD/svg11.dtd">
<svg version="1.1" id="Layer_1" xmlns="http://www.w3.org/2000/svg" xmlns:xlink="http://www.w3.org/1999/xlink" x="0px" y="0px"
	 width="1337.386px" height="780.142px" viewBox="0 0 1337.386 780.142" enable-background="new 0 0 1337.386 780.142"
	 xml:space="preserve">
<linearGradient id="SVGID_1_" gradientUnits="userSpaceOnUse" x1="672.7611" y1="7.1224" x2="668.5755" y2="401.1353">
	<stop  offset="0" style="stop-color:#FF7BAC;stop-opacity:0"/>
	<stop  offset="0.0516" style="stop-color:#DD6898;stop-opacity:0.0761"/>
	<stop  offset="0.1365" style="stop-color:#AC4D7B;stop-opacity:0.2015"/>
	<stop  offset="0.2235" style="stop-color:#813562;stop-opacity:0.33"/>
	<stop  offset="0.3112" style="stop-color:#5E224E;stop-opacity:0.4594"/>
	<stop  offset="0.3997" style="stop-color:#43133E;stop-opacity:0.59"/>
	<stop  offset="0.4894" style="stop-color:#300833;stop-opacity:0.7224"/>
	<stop  offset="0.581" style="stop-color:#25022C;stop-opacity:0.8576"/>
	<stop  offset="0.6774" style="stop-color:#21002A"/>
	<stop  offset="1" style="stop-color:#1C002A;stop-opacity:0.9"/>
</linearGradient>
<rect x="0" y="0" fill="url(#SVGID_1_)" width="1337.386" height="780.142"/>
<g opacity="0.75">
	<path fill="#FFFFFF" d="M556.237,354.881c-0.006,0-0.013,0-0.019,0c-0.653-0.012-1.174-0.546-1.163-1.197
		c0.013-0.792,0.03-1.584,0.051-2.371c0.018-0.652,0.66-1.14,1.213-1.147c0.652,0.018,1.168,0.559,1.151,1.211
		c-0.021,0.778-0.038,1.561-0.051,2.343C557.409,354.365,556.881,354.881,556.237,354.881z"/>
	<path fill="#FFFFFF" d="M556.558,345.974c-0.022,0-0.045,0-0.067-0.002c-0.652-0.037-1.151-0.591-1.114-1.243
		c0.082-1.467,0.178-2.926,0.287-4.383c0.047-0.649,0.625-1.144,1.266-1.089c0.651,0.048,1.139,0.615,1.091,1.264
		c-0.107,1.443-0.203,2.889-0.285,4.342C557.702,345.488,557.18,345.974,556.558,345.974z M557.434,335.087
		c-0.042,0-0.083-0.002-0.125-0.007c-0.65-0.067-1.121-0.647-1.052-1.296c0.154-1.459,0.322-2.914,0.504-4.363
		c0.081-0.645,0.651-1.107,1.32-1.022c0.647,0.081,1.106,0.67,1.025,1.317c-0.18,1.43-0.346,2.871-0.5,4.317
		C558.544,334.638,558.032,335.087,557.434,335.087z M558.852,324.254c-0.06,0-0.121-0.004-0.183-0.014
		c-0.645-0.101-1.086-0.703-0.986-1.347c0.227-1.453,0.47-2.897,0.726-4.335c0.113-0.64,0.72-1.079,1.371-0.953
		c0.642,0.114,1.07,0.726,0.956,1.368c-0.254,1.419-0.492,2.848-0.717,4.284C559.928,323.839,559.425,324.254,558.852,324.254z
		 M560.823,313.51c-0.081,0-0.162-0.008-0.243-0.025c-0.639-0.134-1.048-0.759-0.914-1.395c0.302-1.439,0.62-2.87,0.948-4.292
		c0.148-0.633,0.776-1.028,1.418-0.883c0.636,0.147,1.032,0.78,0.885,1.415c-0.327,1.406-0.639,2.821-0.939,4.244
		C561.861,313.129,561.369,313.51,560.823,313.51z"/>
	<path fill="#FFFFFF" d="M563.356,302.88c-0.102,0-0.203-0.013-0.306-0.04c-0.63-0.167-1.005-0.813-0.837-1.442
		c0.204-0.764,0.412-1.525,0.624-2.284c0.177-0.626,0.828-0.987,1.456-0.817c0.628,0.175,0.995,0.825,0.819,1.453
		c-0.21,0.749-0.416,1.501-0.617,2.256C564.355,302.533,563.877,302.88,563.356,302.88z"/>
</g>
<g opacity="0.75">
	<path fill="#FFFFFF" d="M598.482,482.039c-0.323,0-0.646-0.131-0.879-0.392c-0.526-0.585-1.05-1.181-1.569-1.779
		c-0.427-0.493-0.372-1.236,0.121-1.662c0.494-0.426,1.239-0.373,1.668,0.12c0.51,0.589,1.023,1.172,1.54,1.747
		c0.436,0.486,0.396,1.229-0.09,1.664C599.045,481.94,598.763,482.039,598.482,482.039z"/>
	<path fill="#FFFFFF" d="M592.204,474.492c-0.354,0-0.705-0.159-0.937-0.46c-1.017-1.314-2.015-2.657-2.996-4.026
		c-0.38-0.529-0.256-1.266,0.275-1.646c0.53-0.375,1.268-0.256,1.648,0.274c0.965,1.347,1.947,2.666,2.945,3.962
		c0.398,0.516,0.302,1.255-0.215,1.653C592.709,474.412,592.455,474.492,592.204,474.492z M585.042,464.321
		c-0.39,0-0.771-0.191-0.996-0.543c-0.898-1.397-1.779-2.818-2.642-4.264c-0.335-0.559-0.151-1.282,0.41-1.616
		c0.559-0.336,1.287-0.15,1.62,0.41c0.851,1.423,1.717,2.82,2.601,4.199c0.352,0.548,0.191,1.278-0.358,1.628
		C585.481,464.262,585.261,464.321,585.042,464.321z M578.741,453.601c-0.423,0-0.83-0.226-1.044-0.624
		c-0.785-1.462-1.551-2.944-2.302-4.45c-0.291-0.582-0.053-1.289,0.532-1.579c0.583-0.295,1.295-0.053,1.585,0.529
		c0.74,1.483,1.497,2.947,2.27,4.39c0.308,0.573,0.091,1.287-0.485,1.593C579.12,453.557,578.929,453.601,578.741,453.601z"/>
	<path fill="#FFFFFF" d="M573.261,442.405c-0.454,0-0.885-0.26-1.08-0.7c-0.322-0.721-0.639-1.446-0.953-2.176
		c-0.257-0.599,0.021-1.291,0.621-1.549c0.593-0.256,1.293,0.021,1.551,0.619c0.309,0.721,0.622,1.437,0.939,2.148
		c0.267,0.594-0.002,1.292-0.598,1.556C573.584,442.373,573.422,442.405,573.261,442.405z"/>
</g>
<g opacity="0.75">
	<path fill="#FFFFFF" d="M742.564,470.952c-0.24,0-0.482-0.071-0.69-0.223c-0.531-0.38-0.651-1.116-0.268-1.644
		c0.455-0.631,0.907-1.268,1.355-1.911c0.376-0.539,1.117-0.661,1.646-0.292c0.536,0.373,0.667,1.107,0.293,1.641
		c-0.457,0.651-0.914,1.298-1.378,1.938C743.291,470.781,742.931,470.952,742.564,470.952z"/>
	<path fill="#FFFFFF" d="M730.107,485.816c-0.298,0-0.596-0.111-0.824-0.334c-0.468-0.456-0.478-1.202-0.023-1.667
		c0.893-0.912,1.773-1.844,2.643-2.795c0.441-0.481,1.187-0.516,1.669-0.076c0.482,0.44,0.517,1.186,0.076,1.664
		c-0.888,0.969-1.786,1.92-2.694,2.85C730.72,485.697,730.414,485.816,730.107,485.816z M736.607,478.613
		c-0.268,0-0.538-0.09-0.759-0.274c-0.498-0.419-0.566-1.162-0.148-1.662c0.822-0.978,1.629-1.973,2.426-2.984
		c0.404-0.513,1.154-0.596,1.659-0.2c0.515,0.403,0.602,1.144,0.201,1.655c-0.815,1.034-1.637,2.047-2.472,3.043
		C737.278,478.47,736.944,478.613,736.607,478.613z"/>
	<path fill="#FFFFFF" d="M724.193,491.47c-0.325,0-0.649-0.133-0.882-0.394c-0.434-0.486-0.392-1.229,0.095-1.664
		c0.577-0.513,1.154-1.038,1.724-1.57c0.48-0.438,1.223-0.414,1.671,0.06c0.443,0.476,0.418,1.222-0.06,1.667
		c-0.584,0.541-1.17,1.075-1.761,1.602C724.754,491.371,724.475,491.47,724.193,491.47z"/>
</g>
<g opacity="0.75">
	<path fill="#FFFFFF" d="M775.615,370.208c-0.021,0-0.042,0-0.062-0.002c-0.651-0.034-1.152-0.589-1.117-1.239
		c0.041-0.778,0.076-1.558,0.106-2.341c0.028-0.649,0.552-1.133,1.23-1.13c0.651,0.028,1.159,0.575,1.133,1.227
		c-0.035,0.792-0.069,1.582-0.111,2.369C776.762,369.72,776.24,370.208,775.615,370.208z"/>
	<path fill="#FFFFFF" d="M771.915,400.592c-0.076,0-0.152-0.007-0.229-0.023c-0.642-0.124-1.06-0.744-0.933-1.381
		c0.259-1.324,0.503-2.654,0.739-3.994c0.111-0.645,0.734-1.087,1.367-0.958c0.644,0.11,1.073,0.72,0.96,1.363
		c-0.235,1.354-0.485,2.703-0.748,4.04C772.963,400.203,772.467,400.592,771.915,400.592z M773.625,390.522
		c-0.058,0-0.115-0.005-0.173-0.012c-0.646-0.095-1.092-0.693-0.999-1.338c0.196-1.335,0.376-2.675,0.547-4.024
		c0.083-0.647,0.681-1.117,1.32-1.022c0.646,0.081,1.106,0.67,1.025,1.317c-0.171,1.363-0.355,2.721-0.552,4.07
		C774.708,390.101,774.202,390.522,773.625,390.522z M774.858,380.388c-0.039,0-0.078-0.002-0.116-0.004
		c-0.651-0.065-1.126-0.64-1.064-1.287c0.131-1.347,0.251-2.696,0.36-4.049c0.051-0.649,0.632-1.126,1.272-1.08
		c0.649,0.051,1.135,0.619,1.083,1.268c-0.109,1.368-0.229,2.73-0.36,4.086C775.973,379.933,775.458,380.388,774.858,380.388z"/>
	<path fill="#FFFFFF" d="M770.122,408.882c-0.088,0-0.18-0.009-0.27-0.032c-0.637-0.15-1.029-0.783-0.879-1.416l0.529-2.281
		c0.143-0.633,0.771-1.038,1.412-0.891c0.635,0.143,1.036,0.773,0.891,1.407l-0.533,2.304
		C771.144,408.516,770.659,408.882,770.122,408.882z"/>
</g>
<g opacity="0.75">
	<path fill="#FFFFFF" d="M732.244,233.559c-0.319,0-0.635-0.127-0.868-0.378c-0.529-0.572-1.064-1.137-1.602-1.694
		c-0.453-0.47-0.439-1.215,0.032-1.667c0.469-0.448,1.221-0.437,1.671,0.032c0.547,0.569,1.092,1.145,1.634,1.727
		c0.443,0.478,0.413,1.224-0.065,1.666C732.819,233.455,732.532,233.559,732.244,233.559z"/>
	<path fill="#FFFFFF" d="M752.311,261.563c-0.416,0-0.819-0.22-1.034-0.609c-0.743-1.339-1.5-2.661-2.274-3.964
		c-0.332-0.561-0.145-1.283,0.418-1.615c0.554-0.328,1.283-0.146,1.618,0.416c0.783,1.324,1.554,2.665,2.306,4.024
		c0.316,0.569,0.109,1.286-0.462,1.601C752.702,261.516,752.505,261.563,752.311,261.563z M746.37,251.708
		c-0.383,0-0.762-0.188-0.988-0.533c-0.843-1.281-1.697-2.541-2.565-3.782c-0.374-0.534-0.242-1.269,0.293-1.641
		c0.529-0.367,1.269-0.245,1.646,0.292c0.882,1.259,1.75,2.54,2.601,3.84c0.358,0.544,0.205,1.275-0.341,1.632
		C746.818,251.645,746.594,251.708,746.37,251.708z M739.688,242.337c-0.353,0-0.702-0.157-0.935-0.457
		c-0.937-1.209-1.893-2.394-2.86-3.557c-0.418-0.501-0.348-1.244,0.155-1.66c0.505-0.413,1.249-0.349,1.664,0.154
		c0.985,1.183,1.955,2.39,2.911,3.619c0.399,0.514,0.305,1.255-0.212,1.654C740.196,242.256,739.942,242.337,739.688,242.337z"/>
	<path fill="#FFFFFF" d="M756.582,269.81c-0.439,0-0.861-0.245-1.064-0.666c-0.342-0.706-0.686-1.407-1.034-2.103
		c-0.291-0.582-0.056-1.29,0.528-1.58c0.589-0.288,1.293-0.055,1.586,0.528c0.353,0.706,0.702,1.416,1.048,2.131
		c0.284,0.586,0.037,1.29-0.549,1.574C756.93,269.772,756.755,269.81,756.582,269.81z"/>
</g>
<g opacity="0.75">
	<path fill="#FFFFFF" d="M620.786,215.836c-0.388,0-0.767-0.19-0.994-0.539c-0.354-0.547-0.197-1.277,0.351-1.63
		c0.672-0.433,1.346-0.856,2.023-1.272c0.555-0.338,1.283-0.168,1.626,0.388c0.341,0.555,0.167,1.281-0.389,1.622
		c-0.661,0.405-1.321,0.818-1.977,1.242C621.228,215.775,621.006,215.836,620.786,215.836z"/>
	<path fill="#FFFFFF" d="M628.638,211.281c-0.428,0-0.84-0.232-1.05-0.637c-0.3-0.579-0.074-1.29,0.505-1.589
		c1.35-0.696,2.711-1.357,4.083-1.981c0.594-0.275,1.294-0.009,1.566,0.584c0.27,0.593,0.008,1.291-0.585,1.562
		c-1.338,0.608-2.664,1.25-3.977,1.928C629.007,211.238,628.821,211.281,628.638,211.281z M638.885,206.787
		c-0.482,0-0.936-0.297-1.11-0.776c-0.224-0.611,0.094-1.288,0.706-1.51c1.425-0.518,2.864-0.997,4.311-1.434
		c0.625-0.186,1.284,0.165,1.474,0.786c0.189,0.623-0.164,1.281-0.788,1.47c-1.406,0.426-2.802,0.891-4.188,1.393
		C639.156,206.764,639.02,206.787,638.885,206.787z M649.641,203.697c-0.545,0-1.035-0.379-1.154-0.931
		c-0.138-0.636,0.269-1.264,0.907-1.4c1.481-0.316,2.972-0.591,4.471-0.824c0.651-0.092,1.25,0.341,1.349,0.984
		c0.1,0.642-0.342,1.245-0.987,1.346c-1.453,0.226-2.9,0.492-4.337,0.799C649.806,203.689,649.723,203.697,649.641,203.697z"/>
	<path fill="#FFFFFF" d="M660.728,202.14c-0.615,0-1.135-0.475-1.178-1.097c-0.045-0.65,0.447-1.213,1.098-1.258
		c0.797-0.054,1.597-0.097,2.399-0.127c0.651-0.066,1.2,0.482,1.226,1.133c0.025,0.65-0.484,1.198-1.136,1.222
		c-0.779,0.03-1.553,0.07-2.326,0.124C660.784,202.139,660.756,202.14,660.728,202.14z"/>
</g>
<g opacity="0.3">
	<path fill="#FFFFFF" d="M723.872,341.271c2.588-1.202,4.562-4.043,4.021-6.839c-0.652-3.369-4.556-5.227-7.99-5.018
		c-3.434,0.21-6.572,1.888-9.775,3.139c-5.377,2.1-11.205,3.046-16.972,2.755c-2.433-0.123-5.48-1.073-5.664-3.496
		c-0.167-2.201,2.189-3.621,4.126-4.688c1.937-1.067,4.045-3.117,3.118-5.121c-0.784-1.693-3.245-1.835-4.918-1.004
		c-1.673,0.831-2.943,2.311-4.583,3.206c-1.64,0.895-4.06,0.957-5.033-0.634c-1.049-1.716,0.29-3.827,1.318-5.556
		c3.014-5.063,3.412-11.777,0.354-16.814c-3.058-5.037-9.735-7.816-15.278-5.787c-5.542,2.029-8.826,9.103-6.221,14.388
		c1.023,2.076,2.745,3.707,4.334,5.392c1.589,1.685,3.125,3.564,3.619,5.824c0.493,2.26-0.385,4.973-2.515,5.888
		c-2.324-1.162-3.438-4.071-5.846-5.049c-1.983-0.805-4.507,0.132-5.48,2.034c-0.973,1.902-0.251,4.491,1.566,5.619
		c1.691,1.05,4.195,1.039,5.136,2.789c1.027,1.909-0.997,4.286-3.157,4.516c-2.16,0.23-4.2-0.898-6.133-1.886
		c-3.633-1.857-7.763-3.369-11.736-2.43c-3.972,0.938-7.325,5.266-5.847,9.061c1.458,3.745,6.467,4.758,10.372,3.774
		c3.905-0.984,7.367-3.334,11.289-4.249c1.382-0.322,2.864-0.455,4.196,0.033c1.332,0.489,2.461,1.727,2.46,3.142
		c-0.003,2.448-3.089,3.709-5.527,3.425c-2.438-0.284-4.815-1.431-7.244-1.075c-3.181,0.467-5.598,3.88-4.976,7.026
		c0.622,3.146,4.159,5.388,7.279,4.615c2.257-0.559,3.958-2.348,5.634-3.957c1.676-1.608,3.679-3.197,6.005-3.173
		c2.326,0.024,4.6,2.609,3.455,4.628c-0.917,1.619-3.213,1.787-4.608,3.02c-1.582,1.398-1.536,4.223,0.091,5.569
		c1.626,1.346,4.418,0.87,5.504-0.938c0.753-1.254,0.691-2.81,0.968-4.244c0.277-1.435,1.204-3.003,2.668-3.058
		c1.284-0.049,2.334,1.182,2.518,2.45c0.185,1.269-0.279,2.536-0.793,3.711c-2.31,5.279-4.466,6.273-2.944,11.829
		c1.204,4.394,5.797,7.508,10.359,7.299c4.562-0.209,6.586-6.24,7.291-10.74c0.919-5.866-4.599-8.943-5.697-11.185
		c-1.098-2.241-0.596-5.588,1.789-6.34c2.041-0.644,4.133,0.987,5.218,2.827c1.085,1.84,1.64,4.004,3.037,5.621
		c2.522,2.918,7.667,2.963,10.241,0.089c2.573-2.874,1.949-7.968-1.243-10.139c-2.916-1.984-7.658-2.093-8.644-5.474
		c-0.497-1.706,0.37-3.592,1.748-4.718c1.377-1.126,3.17-1.613,4.932-1.867c2.482-0.358,5.022-0.311,7.489,0.139
		c2.808,0.513,5.498,1.538,8.289,2.136C718.264,342.332,721.285,342.473,723.872,341.271z"/>
	<ellipse fill="#FFFFFF" cx="644.25" cy="318.546" rx="3.308" ry="3.299"/>
	<circle fill="#FFFFFF" cx="635.797" cy="324.778" r="1.838"/>
	<ellipse fill="#FFFFFF" cx="632.58" cy="312.956" rx="2.297" ry="2.291"/>
	<ellipse fill="#FFFFFF" cx="643.24" cy="301.591" rx="5.605" ry="5.957"/>
	<ellipse fill="#FFFFFF" cx="657.207" cy="316.438" rx="1.011" ry="1.192"/>
	<ellipse fill="#FFFFFF" cx="702.509" cy="320.288" rx="2.757" ry="2.658"/>
	<ellipse fill="#FFFFFF" cx="707.747" cy="347.782" rx="2.481" ry="2.658"/>
	<ellipse fill="#FFFFFF" cx="723.608" cy="355.023" rx="4.375" ry="4.583"/>
	<circle fill="#FFFFFF" cx="713.536" cy="354.656" r="1.466"/>
	<ellipse fill="#FFFFFF" cx="701.314" cy="299.483" rx="3.951" ry="3.849"/>
	<ellipse fill="#FFFFFF" cx="659.917" cy="372.894" rx="2.711" ry="2.658"/>
	<ellipse fill="#FFFFFF" cx="648.385" cy="371.565" rx="1.746" ry="1.329"/>
	<ellipse fill="#FFFFFF" cx="634.602" cy="363.179" rx="6.34" ry="7.057"/>
	<ellipse fill="#FFFFFF" cx="644.709" cy="380.226" rx="2.849" ry="3.024"/>
	<ellipse fill="#FFFFFF" cx="694.422" cy="375.552" rx="1.838" ry="1.65"/>
	<ellipse fill="#FFFFFF" cx="691.941" cy="369.412" rx="0.643" ry="0.825"/>
	<ellipse fill="#FFFFFF" cx="703.152" cy="370.007" rx="3.4" ry="2.887"/>
</g>
<g opacity="0.3">
	<path fill="#FFFFFF" d="M561.411,525.23c0.908,1.238,2.621,1.981,4.045,1.403c1.717-0.697,2.293-2.95,1.822-4.738
		c-0.471-1.788-1.689-3.266-2.688-4.824c-1.676-2.614-2.789-5.587-3.239-8.658c-0.19-1.295-0.006-3.001,1.259-3.352
		c1.149-0.319,2.148,0.774,2.917,1.683c0.768,0.909,2.076,1.806,3.041,1.107c0.815-0.59,0.632-1.903,0.017-2.698
		c-0.616-0.795-1.533-1.309-2.179-2.08c-0.646-0.771-0.933-2.039-0.191-2.719c0.799-0.733,2.058-0.248,3.082,0.113
		c2.999,1.058,6.598,0.564,8.947-1.576c2.349-2.14,3.121-5.951,1.465-8.66c-1.656-2.709-5.749-3.698-8.276-1.771
		c-0.993,0.757-1.677,1.835-2.403,2.85c-0.726,1.014-1.561,2.021-2.707,2.518c-1.146,0.497-2.676,0.318-3.384-0.709
		c0.372-1.347,1.797-2.239,2.063-3.611c0.219-1.129-0.542-2.362-1.652-2.676c-1.11-0.313-2.406,0.338-2.813,1.414
		c-0.379,1.001-0.111,2.32-0.94,3c-0.904,0.742-2.376-0.076-2.724-1.191c-0.348-1.115,0.036-2.308,0.357-3.431
		c0.603-2.11,0.971-4.445,0.058-6.441c-0.914-1.996-3.558-3.309-5.414-2.132c-1.832,1.161-1.844,3.907-0.913,5.863
		c0.931,1.955,2.539,3.534,3.435,5.505c0.316,0.694,0.542,1.462,0.422,2.215c-0.119,0.753-0.657,1.479-1.407,1.626
		c-1.298,0.255-2.289-1.239-2.394-2.554c-0.105-1.315,0.254-2.688-0.19-3.931c-0.581-1.628-2.643-2.544-4.245-1.886
		c-1.602,0.658-2.419,2.757-1.682,4.321c0.533,1.131,1.659,1.84,2.687,2.555c1.028,0.715,2.08,1.604,2.311,2.833
		c0.231,1.228-0.9,2.698-2.091,2.307c-0.954-0.314-1.284-1.507-2.083-2.113c-0.907-0.687-2.399-0.367-2.941,0.632
		c-0.543,0.998,0.002,2.42,1.074,2.803c0.743,0.265,1.561,0.07,2.351,0.066s1.717,0.32,1.9,1.086
		c0.16,0.672-0.381,1.354-1.034,1.584c-0.653,0.23-1.373,0.119-2.05-0.029c-3.039-0.665-3.792-1.697-6.577-0.312
		c-2.202,1.095-3.371,3.843-2.782,6.226c0.589,2.383,3.997,2.818,6.455,2.717c3.205-0.13,4.257-3.361,5.33-4.175
		c1.073-0.814,2.899-0.9,3.547,0.279c0.555,1.008-0.09,2.282-0.951,3.047c-0.861,0.765-1.95,1.284-2.66,2.19
		c-1.282,1.635-0.766,4.352,1.026,5.407s4.427,0.192,5.242-1.718c0.745-1.745,0.306-4.256,1.994-5.13
		c0.852-0.441,1.942-0.181,2.683,0.427c0.741,0.608,1.187,1.502,1.506,2.404c0.45,1.271,0.691,2.615,0.711,3.962
		c0.023,1.534-0.239,3.059-0.263,4.593C560.261,522.385,560.503,523.993,561.411,525.23z"/>
	<circle fill="#FFFFFF" cx="565.108" cy="480.878" r="1.782"/>
	<circle fill="#FFFFFF" cx="560.919" cy="477.075" r="0.988"/>
	<circle fill="#FFFFFF" cx="566.847" cy="474.14" r="1.238"/>
	
		<ellipse transform="matrix(-0.981 0.194 -0.194 -0.981 1229.9203 836.6716)" fill="#FFFFFF" cx="573.986" cy="478.568" rx="3.218" ry="3.012"/>
	
		<ellipse transform="matrix(-0.981 0.194 -0.194 -0.981 1218.941 855.6244)" fill="#FFFFFF" cx="567.583" cy="487.487" rx="0.644" ry="0.543"/>
	
		<ellipse transform="matrix(-0.195 -0.9808 0.9808 -0.195 179.5644 1170.9156)" fill="#FFFFFF" cx="570.291" cy="511.77" rx="1.482" ry="1.436"/>
	
		<ellipse transform="matrix(0.981 -0.1941 0.1941 0.981 -89.8457 117.8046)" fill="#FFFFFF" cx="556.271" cy="517.413" rx="1.436" ry="1.333"/>
	
		<ellipse transform="matrix(0.981 -0.194 0.194 0.981 -91.6391 117.5276)" fill="#FFFFFF" cx="554.096" cy="526.533" rx="2.475" ry="2.351"/>
	<circle fill="#FFFFFF" cx="553.235" cy="521.185" r="0.792"/>
	
		<ellipse transform="matrix(-0.981 0.194 -0.194 -0.981 1250.0929 895.4724)" fill="#FFFFFF" cx="581.19" cy="508.96" rx="2.079" ry="2.123"/>
	
		<ellipse transform="matrix(0.981 -0.194 0.194 0.981 -85.7809 113.7693)" fill="#FFFFFF" cx="537.95" cy="494.833" rx="1.436" ry="1.457"/>
	
		<ellipse transform="matrix(0.981 -0.1939 0.1939 0.981 -84.5599 113.5131)" fill="#FFFFFF" cx="537.446" cy="488.615" rx="0.718" ry="0.938"/>
	
		<ellipse transform="matrix(0.981 -0.1941 0.1941 0.981 -82.9644 114.01)" fill="#FFFFFF" cx="540.445" cy="480.47" rx="3.812" ry="3.408"/>
	
		<ellipse transform="matrix(0.981 -0.194 0.194 0.981 -84.4795 112.5695)" fill="#FFFFFF" cx="532.471" cy="487.585" rx="1.634" ry="1.531"/>
	
		<ellipse transform="matrix(0.981 -0.194 0.194 0.981 -89.3353 114.57)" fill="#FFFFFF" cx="540.159" cy="513.3" rx="0.891" ry="0.988"/>
	
		<ellipse transform="matrix(0.981 -0.1939 0.1939 0.981 -88.8585 115.0481)" fill="#FFFFFF" cx="543.153" cy="511.348" rx="0.445" ry="0.346"/>
	
		<ellipse transform="matrix(0.981 -0.194 0.194 0.981 -90.033 115.3796)" fill="#FFFFFF" cx="544.012" cy="517.32" rx="1.559" ry="1.827"/>
</g>
<g opacity="0.3">
	<path fill="#FFFFFF" d="M572.238,186.97c-0.51,1.11-0.362,2.585,0.594,3.347c1.152,0.919,2.945,0.442,4.007-0.578
		c1.062-1.021,1.619-2.439,2.315-3.736c1.17-2.177,2.808-4.102,4.772-5.606c0.828-0.635,2.088-1.169,2.823-0.43
		c0.668,0.672,0.295,1.789-0.039,2.674c-0.335,0.885-0.451,2.139,0.41,2.536c0.728,0.335,1.571-0.301,1.885-1.036
		c0.314-0.735,0.316-1.571,0.602-2.318c0.286-0.747,1.058-1.438,1.819-1.189c0.821,0.269,0.973,1.33,1.119,2.179
		c0.428,2.489,2.17,4.79,4.573,5.586c2.403,0.796,5.357-0.149,6.6-2.348c1.243-2.199,0.342-5.419-1.981-6.421
		c-0.913-0.394-1.929-0.449-2.918-0.558c-0.988-0.109-2.014-0.297-2.805-0.897c-0.791-0.601-1.261-1.73-0.821-2.619
		c1.083-0.265,2.258,0.375,3.316,0.027c0.871-0.287,1.434-1.293,1.222-2.184c-0.213-0.89-1.17-1.535-2.078-1.4
		c-0.845,0.126-1.659,0.824-2.454,0.514c-0.867-0.338-0.87-1.675-0.229-2.35c0.641-0.674,1.621-0.872,2.528-1.085
		c1.703-0.402,3.473-1.054,4.508-2.462c1.035-1.408,0.923-3.75-0.618-4.579c-1.52-0.818-3.437,0.241-4.437,1.645
		c-1,1.404-1.475,3.131-2.5,4.518c-0.361,0.488-0.808,0.943-1.379,1.153c-0.571,0.21-1.285,0.119-1.679-0.343
		c-0.682-0.8-0.026-2.067,0.849-2.651s1.971-0.868,2.664-1.658c0.908-1.035,0.745-2.819-0.335-3.674
		c-1.08-0.854-2.859-0.605-3.662,0.513c-0.581,0.809-0.637,1.864-0.736,2.854c-0.099,0.99-0.31,2.064-1.075,2.701
		c-0.766,0.637-2.229,0.424-2.418-0.552c-0.152-0.783,0.55-1.475,0.662-2.264c0.126-0.895-0.676-1.804-1.582-1.792
		c-0.906,0.012-1.685,0.941-1.535,1.833c0.104,0.618,0.558,1.109,0.867,1.654c0.31,0.545,0.444,1.314-0.018,1.738
		c-0.406,0.372-1.091,0.262-1.505-0.101c-0.414-0.363-0.616-0.905-0.776-1.431c-0.718-2.364-0.291-3.286-2.337-4.677
		c-1.618-1.1-3.985-0.843-5.416,0.491c-1.431,1.334-0.41,3.863,0.615,5.528c1.336,2.169,3.995,1.644,4.978,2.071
		c0.983,0.427,1.753,1.659,1.184,2.566c-0.487,0.776-1.624,0.824-2.491,0.525c-0.867-0.3-1.652-0.852-2.559-0.992
		c-1.637-0.253-3.329,1.159-3.367,2.811c-0.039,1.652,1.586,3.141,3.232,2.965c1.505-0.161,3.083-1.441,4.348-0.611
		c0.638,0.419,0.881,1.275,0.745,2.025c-0.136,0.75-0.585,1.406-1.089,1.978c-0.71,0.805-1.552,1.494-2.483,2.031
		c-1.059,0.611-2.223,1.023-3.301,1.602C573.773,185.068,572.748,185.86,572.238,186.97z"/>
	<path fill="#FFFFFF" d="M605.483,173.381c0.596-0.507,0.668-1.4,0.16-1.994c-0.508-0.595-1.403-0.666-2-0.159
		c-0.596,0.507-0.668,1.4-0.16,1.994C603.991,173.817,604.886,173.888,605.483,173.381z"/>
	<circle fill="#FFFFFF" cx="605.584" cy="167.926" r="0.787"/>
	<circle fill="#FFFFFF" cx="609.931" cy="170.893" r="0.984"/>
	<path fill="#FFFFFF" d="M607.959,175.614c-1.01,0.859-1.086,2.425-0.169,3.499c0.918,1.074,2.48,1.248,3.491,0.39
		c1.01-0.859,1.086-2.425,0.169-3.499C610.532,174.93,608.969,174.755,607.959,175.614z"/>
	
		<ellipse transform="matrix(-0.6493 -0.7605 0.7605 -0.6493 856.8058 748.2612)" fill="#FFFFFF" cx="600.922" cy="176.586" rx="0.511" ry="0.433"/>
	
		<ellipse transform="matrix(0.762 -0.6475 0.6475 0.762 17.5557 423.56)" fill="#FFFFFF" cx="585.062" cy="187.894" rx="1.181" ry="1.141"/>
	
		<ellipse transform="matrix(0.6495 0.7603 -0.7603 0.6495 338.8991 -374.4975)" fill="#FFFFFF" cx="575.686" cy="180.373" rx="1.141" ry="1.063"/>
	<path fill="#FFFFFF" d="M569.768,183.904c0.789-0.67,0.856-1.883,0.15-2.709c-0.706-0.826-1.917-0.952-2.706-0.282
		c-0.789,0.67-0.856,1.883-0.15,2.709C567.768,184.448,568.979,184.574,569.768,183.904z"/>
	<circle fill="#FFFFFF" cx="571.88" cy="179.735" r="0.629"/>
	<path fill="#FFFFFF" d="M590.179,193.097c-0.712,0.605-0.809,1.658-0.216,2.352c0.593,0.694,1.651,0.766,2.363,0.161
		c0.712-0.605,0.809-1.658,0.216-2.352C591.949,192.564,590.891,192.492,590.179,193.097z"/>
	
		<ellipse transform="matrix(0.6495 0.7604 -0.7604 0.6495 325.6416 -388.5856)" fill="#FFFFFF" cx="584.296" cy="158.911" rx="1.141" ry="1.161"/>
	
		<ellipse transform="matrix(0.6496 0.7603 -0.7603 0.6496 324.9022 -392.6571)" fill="#FFFFFF" cx="588.431" cy="156.146" rx="0.571" ry="0.748"/>
	<path fill="#FFFFFF" d="M597.235,157.364c1.143-0.971,1.189-2.79,0.102-4.062c-1.087-1.272-2.894-1.516-4.037-0.545
		c-1.143,0.971-1.189,2.79-0.102,4.062C594.285,158.091,596.092,158.335,597.235,157.364z"/>
	
		<ellipse transform="matrix(0.6495 0.7604 -0.7604 0.6495 321.626 -393.1172)" fill="#FFFFFF" cx="587.216" cy="152.3" rx="1.298" ry="1.22"/>
	
		<ellipse transform="matrix(0.6494 0.7604 -0.7604 0.6494 328.0748 -376.4188)" fill="#FFFFFF" cx="572.293" cy="167.613" rx="0.708" ry="0.787"/>
	
		<ellipse transform="matrix(0.6494 0.7605 -0.7605 0.6494 330.0187 -377.9014)" fill="#FFFFFF" cx="574.814" cy="168.929" rx="0.354" ry="0.276"/>
	<path fill="#FFFFFF" d="M571.794,172.786c0.613-0.521,0.749-1.365,0.305-1.885c-0.444-0.52-1.302-0.52-1.914,0.001
		c-0.613,0.521-0.75,1.365-0.305,1.885C570.324,173.308,571.181,173.307,571.794,172.786z"/>
</g>
<g opacity="0.3">
	<path fill="#FFFFFF" d="M757.033,405.633c-0.668,0.367-1.142,1.159-0.948,1.894c0.234,0.886,1.308,1.311,2.219,1.194
		c0.911-0.117,1.716-0.62,2.547-1.011c1.395-0.656,2.93-1.012,4.471-1.037c0.65-0.011,1.479,0.188,1.572,0.83
		c0.084,0.583-0.518,1.004-1.015,1.323c-0.497,0.319-1.021,0.903-0.738,1.42c0.239,0.437,0.897,0.431,1.328,0.18
		c0.431-0.251,0.742-0.668,1.163-0.936c0.421-0.268,1.064-0.328,1.352,0.079c0.31,0.438-0.008,1.025-0.251,1.503
		c-0.712,1.403-0.697,3.198,0.208,4.485c0.905,1.287,2.734,1.908,4.173,1.268c1.44-0.64,2.187-2.583,1.398-3.944
		c-0.31-0.535-0.798-0.938-1.251-1.358c-0.453-0.42-0.896-0.894-1.068-1.487c-0.172-0.593,0.013-1.331,0.564-1.613
		c0.64,0.268,0.989,1.023,1.648,1.24c0.543,0.179,1.198-0.116,1.423-0.64c0.225-0.524-0.014-1.201-0.518-1.469
		c-0.469-0.249-1.136-0.202-1.418-0.651c-0.308-0.49,0.188-1.159,0.76-1.259c0.571-0.1,1.135,0.164,1.668,0.393
		c1.001,0.43,2.128,0.758,3.17,0.437c1.041-0.321,1.856-1.534,1.394-2.518c-0.456-0.971-1.808-1.152-2.831-0.82
		c-1.023,0.332-1.902,1.02-2.93,1.334c-0.362,0.111-0.755,0.172-1.118,0.066c-0.363-0.106-0.687-0.416-0.712-0.793
		c-0.043-0.652,0.756-1.043,1.411-1.011c0.655,0.032,1.308,0.295,1.949,0.157c0.839-0.181,1.421-1.134,1.199-1.961
		c-0.223-0.827-1.205-1.361-2.022-1.099c-0.591,0.189-1.012,0.696-1.429,1.155c-0.418,0.458-0.923,0.917-1.542,0.953
		c-0.62,0.035-1.272-0.613-1.004-1.171c0.215-0.448,0.824-0.533,1.173-0.887c0.396-0.401,0.333-1.152-0.124-1.482
		c-0.457-0.33-1.193-0.153-1.449,0.348c-0.178,0.347-0.133,0.761-0.181,1.148s-0.267,0.821-0.656,0.862
		c-0.341,0.036-0.643-0.273-0.715-0.608c-0.072-0.335,0.029-0.68,0.144-1.003c0.521-1.447,1.077-1.751,0.571-3.203
		c-0.4-1.149-1.679-1.896-2.89-1.759c-1.211,0.137-1.642,1.78-1.749,2.991c-0.139,1.579,1.386,2.3,1.719,2.877
		c0.333,0.577,0.259,1.478-0.362,1.721c-0.532,0.208-1.119-0.189-1.441-0.66c-0.322-0.471-0.509-1.037-0.91-1.443
		c-0.724-0.732-2.096-0.652-2.729,0.159c-0.634,0.811-0.376,2.157,0.513,2.678c0.813,0.476,2.078,0.42,2.401,1.303
		c0.163,0.445-0.034,0.964-0.381,1.288c-0.347,0.325-0.815,0.486-1.28,0.586c-0.655,0.14-1.332,0.173-1.997,0.097
		c-0.757-0.086-1.492-0.311-2.246-0.42C758.508,405.249,757.7,405.266,757.033,405.633z"/>
	<circle fill="#FFFFFF" cx="778.65" cy="410.261" r="0.881"/>
	<circle fill="#FFFFFF" cx="780.789" cy="408.45" r="0.491"/>
	<circle fill="#FFFFFF" cx="781.859" cy="411.542" r="0.612"/>
	
		<ellipse transform="matrix(-0.0673 -0.9977 0.9977 -0.0673 417.8772 1220.1436)" fill="#FFFFFF" cx="779.224" cy="414.759" rx="1.59" ry="1.496"/>
	
		<ellipse transform="matrix(-0.0673 -0.9977 0.9977 -0.0673 417.3151 1212.2097)" fill="#FFFFFF" cx="775.237" cy="411.055" rx="0.318" ry="0.27"/>
	
		<ellipse transform="matrix(0.9978 -0.0669 0.0669 0.9978 -25.7933 52.0108)" fill="#FFFFFF" cx="763.101" cy="410.84" rx="0.736" ry="0.709"/>
	
		<ellipse transform="matrix(0.0674 0.9977 -0.9977 0.0674 1112.6035 -383.0708)" fill="#FFFFFF" cx="761.211" cy="403.61" rx="0.709" ry="0.662"/>
	
		<ellipse transform="matrix(0.0674 0.9977 -0.9977 0.0674 1106.9048 -380.2579)" fill="#FFFFFF" cx="756.856" cy="401.965" rx="1.223" ry="1.168"/>
	<circle fill="#FFFFFF" cx="759.545" cy="401.882" r="0.391"/>
	
		<ellipse transform="matrix(-0.0674 -0.9977 0.9977 -0.0674 399.8395 1206.469)" fill="#FFFFFF" cx="763.793" cy="416.36" rx="1.028" ry="1.055"/>
	
		<ellipse transform="matrix(0.0674 0.9977 -0.9977 0.0674 1116.5361 -402.3672)" fill="#FFFFFF" cx="773.499" cy="396.065" rx="0.71" ry="0.724"/>
	
		<ellipse transform="matrix(0.0674 0.9977 -0.9977 0.0674 1119.5704 -405.3181)" fill="#FFFFFF" cx="776.595" cy="396.213" rx="0.355" ry="0.466"/>
	
		<ellipse transform="matrix(0.0674 0.9977 -0.9977 0.0674 1125.1293 -407.2734)" fill="#FFFFFF" cx="780.417" cy="398.2" rx="1.884" ry="1.693"/>
	
		<ellipse transform="matrix(0.0675 0.9977 -0.9977 0.0675 1117.9238 -408.3723)" fill="#FFFFFF" cx="777.418" cy="393.84" rx="0.807" ry="0.761"/>
	
		<ellipse transform="matrix(0.0673 0.9977 -0.9977 0.0673 1107.8973 -393.2046)" fill="#FFFFFF" cx="764.261" cy="395.975" rx="0.44" ry="0.491"/>
	
		<ellipse transform="matrix(0.0675 0.9977 -0.9977 0.0675 1110.0769 -392.5457)" fill="#FFFFFF" cx="765.032" cy="397.566" rx="0.22" ry="0.172"/>
	
		<ellipse transform="matrix(0.0673 0.9977 -0.9977 0.0673 1107.4385 -389.4666)" fill="#FFFFFF" cx="762.035" cy="397.608" rx="0.771" ry="0.908"/>
</g>
<g>
	<g>
		
			<ellipse transform="matrix(0.965 -0.2623 0.2623 0.965 -13.4043 177.1339)" fill="#0C9B14" cx="656.728" cy="138.771" rx="6.008" ry="1.717"/>
		<path fill="#32B839" d="M638.631,72.533l0.026-0.007c0.719-0.195,1.461,0.227,1.657,0.944l1.425,5.217l-2.63,0.715l-1.425-5.217
			C637.488,73.468,637.912,72.729,638.631,72.533z"/>
		<path fill="#FFCB86" d="M638.763,78.133l2.63-0.715l8.147,12.189c-2.369,4.388-4.971,8.256-11.596,3.152L638.763,78.133z"/>
		<g>
			<path fill="#32B839" d="M647.084,92.018c-2.659-1.718-4.522-0.977-5.798,1.576l12.543,45.965l5.798-1.576L647.084,92.018z"/>
			<path fill="#3FBF46" d="M637.945,92.763c0.941-0.255,2.202-0.42,3.341,0.831l12.543,45.965l-2.899,0.788L637.945,92.763z"/>
			<path fill="#0C9B14" d="M649.541,89.611c-0.941,0.257-2.111,0.752-2.457,2.407l12.543,45.965l2.899-0.788L649.541,89.611z"/>
		</g>
	</g>
	<g>
		<path fill="#CC7A0A" d="M685.121,187.453c-0.557,0.769-3.188-0.181-5.878-2.121c-2.69-1.94-4.419-4.135-3.862-4.903
			c0.557-0.768,3.189,0.182,5.878,2.121C683.949,184.49,685.677,186.685,685.121,187.453z"/>
		<path fill="#F89F26" d="M727.057,119.355l0.022,0.016c0.604,0.435,0.74,1.277,0.303,1.879l-3.176,4.382l-2.209-1.593l3.177-4.382
			C725.609,119.054,726.453,118.919,727.057,119.355z"/>
		<path fill="#FFCB86" d="M722.769,122.972l2.209,1.593l-4.399,13.976c-4.912,0.915-9.564,1.324-9.74-7.024L722.769,122.972z"/>
		<g>
			<path fill="#F89F26" d="M717.156,138.149c-0.329-3.143-2.076-4.124-4.87-3.512l-34.471,47.548l4.87,3.512L717.156,138.149z"/>
			<path fill="#FFAF42" d="M710.837,131.521c0.79,0.571,1.71,1.446,1.449,3.116l-34.471,47.548l-2.435-1.756L710.837,131.521z"/>
			<path fill="#DB8816" d="M720.577,138.546c-0.791-0.57-1.913-1.167-3.421-0.396l-34.471,47.548l2.435,1.756L720.577,138.546z"/>
		</g>
	</g>
	<g>
		<path fill="#CC2E0A" d="M686.998,161.383c-0.307,0.897-3.102,0.758-6.243-0.311c-3.141-1.069-5.439-2.662-5.132-3.56
			c0.307-0.897,3.102-0.758,6.243,0.311C685.007,158.892,687.305,160.486,686.998,161.383z"/>
		<path fill="#F84D26" d="M707.098,84.021l0.026,0.009c0.706,0.24,1.082,1.005,0.841,1.708l-1.751,5.117l-2.58-0.878l1.75-5.117
			C705.626,84.157,706.393,83.781,707.098,84.021z"/>
		<path fill="#FFCB86" d="M704.061,88.732l2.58,0.878l-0.101,14.648c-4.428,2.31-8.756,4.059-11.375-3.871L704.061,88.732z"/>
		<g>
			<path fill="#F84D26" d="M703.151,104.883c-1.237-2.909-3.197-3.337-5.688-1.935l-18.997,55.532l5.688,1.935L703.151,104.883z"/>
			<path fill="#FF6542" d="M695.163,100.392c0.923,0.315,2.06,0.883,2.3,2.556l-18.996,55.532l-2.844-0.968L695.163,100.392z"/>
			<path fill="#DB3B16" d="M706.538,104.263c-0.923-0.313-2.171-0.557-3.387,0.62l-18.997,55.532l2.844,0.968L706.538,104.263z"/>
		</g>
	</g>
	<g>
		
			<ellipse transform="matrix(0.9975 0.0709 -0.0709 0.9975 15.2626 -46.7123)" fill="#0A5BCC" cx="665.426" cy="191.569" rx="6.009" ry="1.717"/>
		<path fill="#267EF8" d="M672.109,97.567l0.027,0.002c0.743,0.053,1.303,0.697,1.25,1.438l-0.385,5.393l-2.719-0.194l0.386-5.393
			C670.72,98.073,671.366,97.514,672.109,97.567z"/>
		<path fill="#FFCB86" d="M670.376,102.895l2.719,0.193l3.644,14.191c-3.691,3.359-7.43,6.151-11.989-0.852L670.376,102.895z"/>
		<g>
			<path fill="#267EF8" d="M673.621,118.744c-1.94-2.499-3.943-2.414-5.994-0.426l-5.198,73.039l5.994,0.426L673.621,118.744z"/>
			<path fill="#4291FF" d="M664.75,116.431c0.973,0.07,2.217,0.33,2.877,1.887l-5.198,73.038l-2.997-0.213L664.75,116.431z"/>
			<path fill="#005BDB" d="M676.738,117.283c-0.973-0.068-2.242,0.013-3.117,1.461l-5.198,73.038l2.997,0.213L676.738,117.283z"/>
		</g>
	</g>
	<g>
		<path fill="#9D4108" d="M660.473,160.328c0.514,0.798-1.335,2.894-4.128,4.682c-2.793,1.788-5.474,2.59-5.987,1.793
			c-0.513-0.798,1.335-2.894,4.128-4.682C657.279,160.333,659.96,159.53,660.473,160.328z"/>
		<path fill="#C9601F" d="M612.252,96.502l0.023-0.015c0.627-0.401,1.462-0.22,1.864,0.406l2.928,4.551l-2.295,1.468l-2.928-4.551
			C611.443,97.737,611.625,96.904,612.252,96.502z"/>
		<path fill="#FFCB86" d="M614.06,101.805l2.294-1.468l11.435,9.193c-0.941,4.894-2.261,9.363-10.115,6.474L614.06,101.805z"/>
		<g>
			<path fill="#C9601F" d="M626.172,112.564c-3.053-0.844-4.608,0.42-5.058,3.237l31.772,49.383l5.058-3.237L626.172,112.564z"/>
			<path fill="#D07136" d="M617.677,116.007c0.821-0.525,1.974-1.059,3.437-0.206l31.772,49.383l-2.529,1.619L617.677,116.007z"/>
			<path fill="#AC4D11" d="M627.792,109.533c-0.821,0.526-1.788,1.349-1.62,3.031l31.772,49.383l2.529-1.619L627.792,109.533z"/>
		</g>
	</g>
</g>
<g>
	<path fill="#ECD6B1" d="M512.678,354.678c-28.109-5.49-70.486,14.82-59.35,34.895c11.852,21.367,30.06,2.73,37.541,15.981
		c5.563,9.855-7.493,16.915,4.905,25.925c14.812,10.764,52.645-0.535,58.475-22.909
		C561.299,381.512,540.786,360.168,512.678,354.678z M512.941,427.92c-5.99,0.696-11.316-2.776-11.898-7.754
		c-0.581-4.978,3.803-9.578,9.792-10.273c5.99-0.696,11.316,2.776,11.898,7.754C523.315,422.624,518.931,427.224,512.941,427.92z"/>
	<path fill="#FF4632" d="M473.272,382.814c-0.792,4.032-4.71,6.66-8.753,5.871c-4.042-0.789-6.677-4.698-5.886-8.729
		c0.792-4.032,4.71-6.66,8.752-5.871C471.428,374.874,474.064,378.782,473.272,382.814z"/>
	<path fill="#03A0B3" d="M491.839,369.662c-0.792,4.032-4.71,6.66-8.752,5.87c-4.042-0.789-6.678-4.698-5.886-8.729
		c0.792-4.032,4.71-6.66,8.753-5.871C489.995,361.722,492.63,365.63,491.839,369.662z"/>
	<path fill="#FFF702" d="M515.85,367.928c-0.792,4.032-4.71,6.66-8.752,5.871s-6.677-4.698-5.886-8.73
		c0.792-4.032,4.71-6.66,8.752-5.87C514.007,359.988,516.642,363.896,515.85,367.928z"/>
	<path fill="#FFB020" d="M537.244,376.036c-0.792,4.032-4.71,6.66-8.752,5.87c-4.042-0.789-6.678-4.698-5.886-8.729
		s4.71-6.66,8.752-5.871C535.401,368.096,538.036,372.004,537.244,376.036z"/>
	<path fill="#45557E" d="M550.703,393.824c-0.791,4.032-4.71,6.66-8.752,5.871c-4.042-0.789-6.677-4.698-5.886-8.729
		c0.792-4.032,4.71-6.66,8.752-5.871C548.86,385.884,551.495,389.793,550.703,393.824z"/>
	<path fill="#00B98C" d="M544.283,415.772c-0.792,4.032-4.71,6.66-8.752,5.87c-4.042-0.789-6.678-4.698-5.886-8.729
		s4.71-6.66,8.752-5.87C542.44,407.833,545.075,411.741,544.283,415.772z"/>
	<path opacity="0.5" fill="#FFFFFF" d="M532.181,415.939c-0.145-3.487,2.572-6.43,6.068-6.574c1.334-0.055,2.588,0.308,3.638,0.969
		c-1.211-1.602-3.162-2.606-5.324-2.517c-3.496,0.144-6.212,3.088-6.068,6.575c0.09,2.156,1.254,4.012,2.954,5.083
		C532.702,418.486,532.236,417.27,532.181,415.939z"/>
	<path opacity="0.5" fill="#FFFFFF" d="M538.947,394.462c-0.145-3.487,2.572-6.43,6.068-6.574c1.334-0.055,2.588,0.308,3.638,0.969
		c-1.21-1.602-3.162-2.606-5.323-2.517c-3.496,0.144-6.212,3.088-6.068,6.574c0.09,2.156,1.254,4.012,2.955,5.083
		C539.468,397.009,539.002,395.793,538.947,394.462z"/>
	<path opacity="0.5" fill="#FFFFFF" d="M525.388,376.096c-0.145-3.487,2.572-6.43,6.068-6.575c1.334-0.055,2.588,0.308,3.638,0.969
		c-1.21-1.602-3.162-2.606-5.323-2.517c-3.496,0.145-6.212,3.088-6.068,6.575c0.089,2.156,1.253,4.012,2.954,5.083
		C525.909,378.643,525.443,377.427,525.388,376.096z"/>
	<path opacity="0.5" fill="#FFFFFF" d="M504.428,368.631c-0.145-3.487,2.572-6.43,6.068-6.574c1.334-0.055,2.588,0.308,3.638,0.969
		c-1.211-1.602-3.162-2.606-5.323-2.516c-3.496,0.144-6.212,3.088-6.068,6.575c0.089,2.156,1.253,4.012,2.954,5.083
		C504.95,371.177,504.483,369.962,504.428,368.631z"/>
	<path opacity="0.5" fill="#FFFFFF" d="M480.251,370.333c-0.145-3.487,2.572-6.43,6.068-6.574c1.334-0.055,2.588,0.308,3.638,0.969
		c-1.21-1.602-3.162-2.606-5.323-2.516c-3.496,0.145-6.212,3.088-6.068,6.575c0.09,2.156,1.254,4.013,2.954,5.083
		C480.773,372.88,480.306,371.664,480.251,370.333z"/>
	<path opacity="0.5" fill="#FFFFFF" d="M461.728,383.493c-0.145-3.487,2.572-6.43,6.068-6.575c1.334-0.055,2.588,0.308,3.638,0.969
		c-1.21-1.602-3.162-2.606-5.323-2.517c-3.496,0.145-6.212,3.088-6.068,6.575c0.089,2.156,1.254,4.012,2.954,5.083
		C462.25,386.04,461.783,384.824,461.728,383.493z"/>
	<g>
		<g>
			<path fill="#373736" d="M545.993,359.41c-1.083-2.829-0.621-6.112,0.857-8.758c1.478-2.646,3.886-4.692,6.562-6.123
				c0.88-0.471,1.799-0.885,2.596-1.484c2.07-1.557,3.093-4.38,2.5-6.897c1.566,1.678,2.221,4.05,2.212,6.343
				s-0.624,4.538-1.316,6.724c-0.918,2.898-2.025,5.823-4.044,8.099c-2.018,2.276-5.137,3.801-8.119,3.178
				c-0.278-0.058-0.563-0.139-0.78-0.322C546.23,359.976,546.101,359.69,545.993,359.41z"/>
			<path fill="#565655" d="M547.386,357.47c0,0-0.026-0.291-0.073-0.799c-0.069-0.505-0.045-1.232,0.119-2.143
				c0.102-0.439,0.279-0.893,0.435-1.392c0.215-0.467,0.456-0.966,0.757-1.445c0.345-0.443,0.642-0.963,1.069-1.37
				c0.393-0.443,0.819-0.861,1.27-1.248c1.789-1.582,3.861-2.678,5.219-3.702c0.307-0.28,0.645-0.499,0.849-0.761
				c0.26-0.236,0.375-0.495,0.481-0.716c0.131-0.215,0.071-0.418,0.11-0.55c0.014-0.137,0.021-0.211,0.021-0.211
				s0.011,0.072,0.032,0.206c-0.008,0.13,0.119,0.355,0.021,0.605c-0.065,0.258-0.148,0.586-0.372,0.883
				c-0.176,0.342-0.47,0.626-0.779,0.959c-1.277,1.258-3.24,2.53-4.937,4.023c-0.438,0.361-0.847,0.748-1.221,1.153
				c-0.406,0.38-0.711,0.822-1.055,1.22c-0.29,0.429-0.571,0.849-0.82,1.259c-0.19,0.434-0.408,0.843-0.549,1.234
				c-0.1,0.4-0.217,0.766-0.322,1.099c-0.095,0.336-0.095,0.654-0.138,0.903C547.428,357.181,547.386,357.47,547.386,357.47z"/>
			<path fill="#565655" d="M557.851,346.448c0,0-0.002,0.263-0.053,0.716c-0.092,0.207-0.159,0.523-0.345,0.797
				c-0.173,0.286-0.395,0.596-0.698,0.865c-1.161,1.149-2.996,2.158-4.504,3.468c-0.401,0.304-0.728,0.678-1.085,1.014
				c-0.291,0.388-0.669,0.706-0.904,1.109c-0.542,0.752-0.989,1.517-1.263,2.224c-0.298,0.699-0.523,1.302-0.625,1.744
				c-0.142,0.435-0.222,0.683-0.222,0.683s0.013-0.261,0.034-0.717c0.026-0.458,0.063-1.122,0.292-1.889
				c0.203-0.765,0.525-1.666,1.068-2.523c0.238-0.451,0.597-0.839,0.919-1.264c0.375-0.373,0.729-0.791,1.149-1.123
				c1.631-1.419,3.583-2.252,4.782-3.141c0.306-0.222,0.555-0.445,0.764-0.664c0.221-0.21,0.314-0.443,0.453-0.623
				C557.764,346.694,557.851,346.448,557.851,346.448z"/>
			<path fill="#565655" d="M555.959,351.58c0,0-0.081,0.146-0.239,0.386c-0.187,0.223-0.343,0.61-0.568,0.999
				c-0.432,0.839-0.83,2.053-1.57,3.202c-0.203,0.277-0.378,0.566-0.626,0.813c-0.197,0.245-0.511,0.524-0.754,0.678
				c-0.234,0.185-0.488,0.344-0.793,0.459c-0.287,0.117-0.543,0.259-0.799,0.296c-1.002,0.274-1.684,0.045-1.672,0.092
				c0,0,0.159-0.066,0.427-0.157c0.277-0.055,0.632-0.245,1.046-0.449c0.221-0.078,0.4-0.246,0.608-0.38
				c0.205-0.117,0.409-0.321,0.639-0.53c0.255-0.199,0.367-0.376,0.578-0.623c0.201-0.208,0.351-0.483,0.524-0.731
				c0.341-0.508,0.642-1.069,0.961-1.586c0.309-0.528,0.67-0.989,0.973-1.387c0.34-0.398,0.654-0.669,0.889-0.828
				C555.816,351.666,555.959,351.58,555.959,351.58z"/>
			<path fill="#FFEC90" d="M494.454,443.587l34.622-62.16c0.602-1.081,1.828-1.242,2.903-0.627l4.523,2.587
				c1.109,0.634,1.142,1.84,0.442,2.907l-38.649,59.601c-0.611,0.931-1.821,1.266-2.826,0.782l-0.039-0.019
				C494.281,446.105,493.835,444.701,494.454,443.587z"/>
			<path fill="#E5E5E5" d="M528.195,382.401l17.263-25.095c0.712,2.116,3,3.467,5.197,3.074l-14.121,27.262
				C534.502,389.543,526.985,386.021,528.195,382.401z"/>
		</g>
		<path fill="#FFFFFF" d="M546.354,360.348c-0.589-0.372-1.034-0.924-1.19-1.504l-16.088,23.754
			c-0.02,1.372,0.632,2.424,1.983,3.143L546.354,360.348z"/>
	</g>
	<g>
		<path fill="#B79582" d="M534.503,332.105l-3.663,12.938c-1.608,0.196-3.056-0.087-4.309-1.051l2.722-13.167L534.503,332.105z"/>
		<g id="XMLID_4_">
			<g>
				<path fill="#FFEC90" d="M524.768,368.944c0.923,0.215,1.23,1.066,0.975,1.999l-23.116,88.423
					c-0.38,1.425-1.496,2.403-2.596,2.248l-0.04-0.01c-1.29-0.127-2.039-1.675-1.663-3.323l20.679-89.097
					c0.197-0.914,1.057-1.303,1.951-1.095L524.768,368.944z"/>
			</g>
			<g>
				<path fill="#FFB442" d="M524.768,368.944c0.923,0.215,1.23,1.066,0.975,1.999l-23.116,88.423
					c-0.38,1.425-1.496,2.403-2.596,2.248l-0.04-0.01c-1.29-0.127-2.039-1.675-1.663-3.323l20.679-89.097
					c0.197-0.914,1.057-1.303,1.951-1.095L524.768,368.944z"/>
			</g>
		</g>
		<g id="XMLID_2_">
			<path fill="#E5E5E5" d="M530.838,345.047l-5.422,27.964c-1.093,1.514-7.182,0.982-6.974-1.921l8.079-27.069
				C527.642,344.588,529.539,345.051,530.838,345.047z"/>
		</g>
		<path fill="#FFFFFF" d="M527.956,345.399c-0.596-0.08-0.905-0.216-1.214-0.515l-7.396,25.785c0.221,1.152,0.953,1.436,2.016,1.63
			L527.956,345.399z"/>
		<path fill="#836354" d="M528.395,342.177c-0.037-0.079-0.097-0.234-0.198-0.454c-0.118-0.323-0.22-0.824-0.209-1.438
			c-0.037-1.284,0.581-2.829,0.804-4.597c0.269-1.728,0.382-3.452,0.81-4.623c0.026-0.05,0.039-0.103,0.062-0.139l0.464,0.113
			c-0.01,0.04-0.009,0.096-0.022,0.148c-0.173,1.163-0.005,2.773-0.313,4.66c-0.229,1.85-1.105,3.36-1.297,4.49
			c-0.136,0.555-0.154,1.027-0.135,1.354C528.384,341.936,528.398,342.107,528.395,342.177z"/>
		<path fill="#836354" d="M530.911,337.76c-0.318,0.553-0.627,1.01-0.84,1.421c-0.226,0.407-0.357,0.768-0.419,1.019
			c-0.048,0.254-0.087,0.413-0.087,0.413s-0.031-0.162-0.065-0.422c-0.044-0.277-0.027-0.693,0.08-1.186
			c0.187-0.992,0.925-2.171,1.068-3.439c0.165-1.305-0.004-2.677,0.179-3.656c0.045-0.241,0.1-0.466,0.149-0.664l0.331,0.081
			c-0.002,0.182,0.018,0.383,0.036,0.597c0.055,0.924,0.495,2.166,0.324,3.778C531.597,336.511,531.216,337.203,530.911,337.76z"/>
		<path fill="#836354" d="M532.824,337.063c-0.134,0.43-0.28,0.856-0.467,1.217c-0.21,0.341-0.407,0.686-0.601,1.017
			c-0.384,0.593-0.752,1.12-0.965,1.587c-0.199,0.47-0.29,0.896-0.308,1.2c0.001,0.225-0.008,0.376-0.011,0.446
			c-0.04-0.122-0.351-0.744-0.165-1.792c0.103-0.591,0.378-1.197,0.699-1.876c0.147-0.314,0.298-0.642,0.455-0.996
			c0.154-0.341,0.255-0.695,0.375-1.072c0.386-1.517,0.593-3.05,0.869-4.118l0.233-0.952l0.252,0.061
			c0.005,0.267,0.01,0.591,0.018,0.957C533.178,333.842,533.245,335.344,532.824,337.063z"/>
	</g>
	<path fill="#ECD6B1" d="M522.267,421.308c-1.286,3.401-4.858,6.093-9.326,6.612c-5.99,0.696-11.316-2.776-11.898-7.754
		c-0.118-1.012-0.022-2.005,0.242-2.956l-9.595-1.874c-1.364,5.411-3.849,10.378,4.083,16.143
		c10.442,7.588,32.314,4.201,46.36-6.291L522.267,421.308z"/>
</g>
<g>
	<g>
		<g>
			<polygon fill="#FFCB86" points="797.52,376.059 792.863,380.828 803.531,404.928 819.437,409.785 827.229,401.804 
				821.958,386.055 			"/>
			<path fill="#575756" d="M822.082,395.368c-2.613-2.538-6.793-2.482-9.337,0.124c-2.544,2.606-2.489,6.775,0.124,9.313
				c-2.612-2.537-6.793-2.482-9.337,0.124l4.731,4.595l0,0l47.174,45.818l4.607-4.718l9.213-9.436l4.607-4.718l-42.444-41.223
				l-4.731-4.595l-4.731-4.595C819.414,388.661,819.469,392.83,822.082,395.368z"/>
			<path fill="#3C3C3B" d="M803.531,404.928l4.731,4.595l0,0l47.174,45.818l4.607-4.718l-47.174-45.818
				C810.256,402.267,806.076,402.322,803.531,404.928z"/>
			<path fill="#706F6F" d="M822.082,395.368L822.082,395.368l47.174,45.818l4.607-4.718l-42.444-41.223l-4.731-4.595l-4.731-4.595
				C819.414,388.661,819.469,392.83,822.082,395.368z"/>
			<path fill="#575756" d="M822.082,395.368c-2.613-2.538-6.793-2.482-9.337,0.124c-2.544,2.606-2.489,6.775,0.124,9.313
				l47.174,45.818l9.213-9.436L822.082,395.368L822.082,395.368z"/>
			<polygon fill="#3C3C3B" points="786.183,369.694 792.863,380.828 797.52,376.059 			"/>
		</g>
		<path fill="#9D9D9C" d="M849.873,427.143c1.253,1.217,1.28,3.217,0.06,4.467l0,0c-1.221,1.25-3.226,1.277-4.479,0.059
			l-15.195-14.758c-1.253-1.217-1.28-3.217-0.06-4.467l0,0c1.22-1.25,3.226-1.276,4.479-0.059L849.873,427.143z"/>
	</g>
	<g>
		<g>
			<path fill="#FC382E" d="M891.567,418.335l-7.126,7.299c-2.664,2.728-7.041,2.786-9.776,0.129l-34.309-33.323
				c-2.735-2.657-2.794-7.022-0.13-9.751l7.126-7.299c2.664-2.728,7.041-2.786,9.776-0.129l34.309,33.323
				C894.172,411.242,894.23,415.607,891.567,418.335z"/>
			<path fill="#0593A1" d="M857.439,409.034l17.225,16.73c2.735,2.657,7.112,2.599,9.776-0.129l7.126-7.299
				c2.664-2.728,2.606-7.094-0.13-9.75l-17.225-16.73L857.439,409.034z"/>
		</g>
		<path opacity="0.1" fill="#1D1D1B" d="M880.366,422.863c-0.606-0.307-1.177-0.71-1.69-1.208l-17.225-16.73l-17.084-16.593
			c-2.735-2.657-2.794-7.022-0.13-9.751l-4.012,4.109c-2.664,2.728-2.606,7.094,0.13,9.751l17.084,16.593l17.225,16.73
			c0.513,0.498,1.083,0.901,1.69,1.209c2.627,1.333,5.922,0.879,8.087-1.338l4.012-4.109
			C886.288,423.742,882.993,424.195,880.366,422.863z"/>
	</g>
</g>
<g>
	<path fill="#06A5B5" d="M777.283,781.881H552.517l0.164-7.85l1.23-53.274c0.328-15.332,14.553-28.497,34.476-31.932l76.493-13.124
		l76.534,13.124c19.882,3.435,34.148,16.6,34.476,31.932L777.283,781.881z"/>
	<path fill="#CF9359" d="M673.91,739.496c-0.036-0.041-0.072-0.082-0.108-0.123c-2.948-3.377-2.113-8.397,1.59-11.267
		c14.102-11.182,21.651-12.431,32.289-25.448c2.813-3.355,7.75-3.941,11.292-1.324c0.043,0.032,0.086,0.064,0.129,0.096
		c3.536,2.615,4.218,7.625,1.256,11.202c-11.114,13.726-19.189,15.65-33.863,27.466C682.61,743.167,676.853,742.871,673.91,739.496z
		"/>
	<g>
		<path fill="#7B6A58" d="M781.353,624.234c-9.066,6.648-7.99,20.576-5.683,22.089c2.937,1.926,3.158-1.053,12.321-6.253
			c10.407-5.906,12.95-16.75,9.53-28.284C791.88,622.898,787.726,619.561,781.353,624.234z"/>
		<path fill="#F5DDA2" d="M676.627,773.786c26.991-31.63,53.76-63.442,80.181-95.53l-11.052-8.894
			c-27.448,34.535-54.519,69.377-81.332,104.424H676.627z"/>
		<path fill="#DADADA" d="M755.327,681.299c11.76-16.112,20.554-28.199,27.328-37.641l-8.458-6.807
			c-7.821,8.6-17.807,19.727-31.11,34.597L755.327,681.299z"/>
		<path fill="#FFFFFF" d="M774.272,638.86c-6.496,7.142-18.214,19.623-29.262,31.972l3.029,2.437
			c9.683-11.969,21.238-26.06,27.733-33.202L774.272,638.86z"/>
	</g>
	<polygon fill="#E6332A" points="633.318,775.058 669.502,775.058 663.765,689.452 639.054,689.452 	"/>
	<polygon fill="#FC382E" points="604.655,781.872 650.674,781.872 651.554,689.452 620.126,689.452 	"/>
	<path fill="#D93028" d="M710.854,690.77c-30.329,6.097-61.568,6.136-91.912,0.113c-2.829-0.559-4.676-2.976-4.145-5.32
		c0.913-4.098,4.558-8.112,5.471-12.209c1.015-4.558-0.701-9.198,0.315-13.756c0.532-2.346,2.888-3.813,5.268-3.342
		c25.754,5.111,52.267,5.079,78.008-0.096c2.38-0.478,4.737,0.985,5.277,3.33c0.96,4.258-0.544,8.01,0.416,12.267
		c0.99,4.393,4.443,9.291,5.433,13.683C715.524,687.783,713.679,690.203,710.854,690.77z"/>
	<path fill="#FFD2A1" d="M663.988,660.999h-0.539c0.09,0,0.18,0,0.27,0C663.808,660.998,663.898,660.999,663.988,660.999z"/>
	<path fill="#FFD2A1" d="M665.797,660.999h0.539c-0.091,0-0.181,0-0.27,0C665.978,660.998,665.888,660.999,665.797,660.999z"/>
	<path fill="#FFD2A1" d="M603.86,567.059c0.076,0.001,0.151-0.013,0.227-0.009c0.317,0.017,0.627,0.074,0.936,0.146
		c0.058,0.012,0.116,0.018,0.173,0.031c1.03,0.274,2.038,0.853,3.09,1.653c0.111,2.634,1.444,33.718,1.578,35.369
		c-0.327,0.093-0.653,0.233-0.98,0.279c-1.074,0.186-2.194,0.046-3.268-0.373c-4.574-1.722-8.775-8.287-10.129-16.666
		c-1.681-10.335,1.587-19.46,7.328-20.391c0.033-0.005,0.068,0,0.102-0.004l0.001,0.018
		C603.24,567.061,603.551,567.055,603.86,567.059z"/>
	<path fill="#FFD2A1" d="M725.926,567.059c-0.076,0.001-0.151-0.013-0.227-0.009c-0.317,0.017-0.627,0.074-0.937,0.146
		c-0.057,0.012-0.115,0.018-0.173,0.031c-1.031,0.274-2.038,0.853-3.09,1.653c-0.111,2.634-1.444,33.718-1.578,35.369
		c0.326,0.093,0.653,0.233,0.98,0.279c1.074,0.186,2.194,0.046,3.267-0.373c4.574-1.722,8.775-8.287,10.129-16.666
		c1.681-10.335-1.587-19.46-7.328-20.391c-0.034-0.005-0.068,0-0.102-0.004l-0.001,0.018
		C726.546,567.061,726.235,567.055,725.926,567.059z"/>
	<path opacity="0.5" fill="#7D4E24" d="M611.731,572.314c-0.362-0.541-0.761-0.991-1.155-1.452c0.373,0.353,0.76,0.727,1.155,1.117
		V572.314z"/>
	<path opacity="0.5" fill="#7D4E24" d="M718.054,572.314c0.362-0.541,0.761-0.991,1.155-1.452c-0.373,0.353-0.759,0.727-1.155,1.117
		V572.314z"/>
	<path fill="#FFD2A1" d="M719.21,570.862c-0.395,0.46-0.794,0.91-1.155,1.452v-0.335c-0.121,0.119-0.234,0.227-0.358,0.349v-0.008
		l0.255-27.831c0-1.281-0.168-2.518-0.377-3.738c-19.873,9.525-36.087,2.035-51.504-5.041c0,0-35.998-18.28-53.859,5.041
		c-0.209,1.22-0.377,2.458-0.377,3.738l0.255,27.831v0.008c-0.124-0.122-0.237-0.23-0.358-0.349v0.335
		c-0.361-0.541-0.761-0.991-1.155-1.452c-0.801-0.758-1.559-1.425-2.29-1.982c0.111,2.634,1.444,33.718,1.578,35.369
		c2.521,11.918,5.882,21.322,10.176,27.607c5.088,7.448,9.009,13.035,12.649,17.271l0.005,0.005
		c6.201,7.161,11.587,10.257,20.517,11.356c2.968,0.366,6.327,0.51,10.238,0.51c0.09,0,0.18,0,0.27,0c0.089,0,0.18,0,0.269,0
		c0.313,0,0.6-0.007,0.905-0.009c0.305,0.002,0.593,0.009,0.905,0.009c0.09,0,0.18,0,0.27,0c0.089,0,0.179,0,0.27,0
		c3.911,0,7.269-0.145,10.238-0.51c8.93-1.099,14.316-4.195,20.515-11.354l0.007-0.008c3.64-4.237,7.562-9.823,12.649-17.271
		c4.295-6.285,7.655-15.689,10.176-27.607c0.134-1.651,1.468-32.735,1.579-35.369C720.768,569.437,720.011,570.104,719.21,570.862z"
		/>
	<path fill="#7D4E24" d="M715.804,509.341c-12.447-13.167-24.894-17.434-49.788-17.434c-0.386,0-0.742,0.011-1.122,0.013
		c-0.38-0.002-0.737-0.013-1.122-0.013c-24.895,0-37.341,4.267-49.788,17.434c-8.606,9.104-13.35,21.229-12.883,33.751l1.819,24.004
		l0.001,0.018c0.32-0.052,0.631-0.058,0.94-0.055c0.075,0.001,0.152-0.012,0.227-0.009c0.317,0.018,0.627,0.074,0.937,0.146
		c0.057,0.013,0.116,0.016,0.173,0.031c1.03,0.275,2.038,0.853,3.09,1.653c0.111,2.634,1.444,33.718,1.578,35.369
		c2.521,11.918,5.153,32.324,10.176,42.173c4.096,8.033,9.009,13.035,12.649,17.271l0.007,0.007
		c6.198,7.158,11.585,10.254,20.515,11.354c2.968,0.365,11.377,0.503,11.682,0.501c0.305,0.002,8.714-0.136,11.682-0.501
		c8.93-1.1,14.316-4.195,20.515-11.354l0.007-0.007c3.64-4.237,8.537-9.246,12.649-17.271c4.667-9.107,7.655-30.256,10.176-42.173
		c0.134-1.651,1.468-32.735,1.579-35.369c1.052-0.8,2.059-1.378,3.089-1.653c0.057-0.015,0.116-0.018,0.173-0.031
		c0.309-0.072,0.62-0.129,0.937-0.146c0.074-0.003,0.151,0.01,0.226,0.009c0.31-0.003,0.62,0.002,0.94,0.055l0.002-0.018
		l1.819-24.004C729.153,530.569,724.41,518.444,715.804,509.341z M674.625,632.221h-19.464c-3.895,0-7.053-2.735-7.053-6.11
		c0-3.375,3.157-6.11,7.053-6.11h19.464c3.895,0,7.053,2.736,7.053,6.11C681.678,629.485,678.52,632.221,674.625,632.221z
		 M689.861,617.843c-5.491-3.266-10.273-5.042-15.447-5.974c-4.193-0.755-13.694-0.687-18.911,0.395
		c-4.868,1.009-10.781,2.726-15.58,5.58c-8.775,5.307-20.771-6.518-22.919-13.361c-2.107-6.704-4.893-36.105-4.953-36.164
		l-0.218-23.829c0-1.281,0.168-2.518,0.377-3.738c36.992-27.337,80.793,39.448,105.362,0c0.209,1.22,0.377,2.458,0.377,3.738
		l-0.215,23.548c-0.06,0.06-0.04,1.075-0.02,2.103c0,0-2.829,27.639-4.936,34.343C710.633,611.326,698.637,623.151,689.861,617.843z
		"/>
	<g>
		<path fill="#D93028" d="M729.108,526.058c-38.725,8.075-80.66,7.949-125.659,0V499.66h125.659V526.058z"/>
		<path fill="#FC382E" d="M752.272,507.138c8.276,19.86-18.351,37.291-84.353,26.315c-70.455-11.717-75.658-29.391-72.341-50.643
			c3.317-21.251,44.395-38.646,83.278-12.027C708.688,491.205,742.127,482.792,752.272,507.138z"/>
		<path fill="#3C3C3B" d="M678.248,484.369h1.933c7.253-11.649,11.471-23.19,8.525-34.478l-11.703-2.93
			C681.838,459.464,681.23,471.926,678.248,484.369z"/>
	</g>
	<polygon fill="#FFCF9F" points="697.155,770.209 659.099,781.711 647.604,745.824 685.479,733.756 	"/>
	<path fill="#FAC48E" d="M705.604,754.795l-0.051-0.14c-1.388-3.819,0.59-8.038,4.419-9.423l17.623-6.547
		c3.829-1.385,8.059,0.589,9.448,4.408l0.051,0.14c1.389,3.819-0.59,8.038-4.419,9.423l-17.623,6.547
		C711.223,760.588,706.993,758.615,705.604,754.795z"/>
	<path fill="#FAC48E" d="M707.649,768.852l-0.045-0.124c-1.233-3.392,0.524-7.139,3.925-8.369l15.156-5.444
		c3.401-1.23,7.158,0.523,8.391,3.915l0.045,0.124c1.233,3.392-0.524,7.139-3.925,8.369l-15.155,5.444
		C712.639,773.996,708.882,772.244,707.649,768.852z"/>
	<path fill="#FAC48E" d="M704.355,725.634l-0.078-0.127c-2.117-3.471-1.013-7.996,2.467-10.108l23.085-12.27
		c3.48-2.112,8.017-1.011,10.134,2.46l0.078,0.127c2.117,3.47,1.013,7.996-2.467,10.108l-23.085,12.27
		C711.01,730.205,706.472,729.104,704.355,725.634z"/>
	<path fill="#FAC48E" d="M702.081,741.391l-0.053-0.139c-1.445-3.799,0.472-8.046,4.281-9.487l20.54-9.898
		c3.808-1.441,8.067,0.47,9.512,4.269l0.053,0.139c1.445,3.799-0.472,8.046-4.281,9.486l-20.54,9.898
		C707.784,747.1,703.526,745.19,702.081,741.391z"/>
	<path fill="#FFCF9F" d="M674.605,764.836l-4.953-13.623c-4.086-11.238,1.736-23.651,13.004-27.726l16.685-6.034l19.749,54.319
		l-16.685,6.034C691.137,781.88,678.691,776.074,674.605,764.836z"/>
	<path fill="#FFCF9F" d="M712.5,773.979l12.408-4.487c3.401-1.23,5.158-4.977,3.925-8.369l-0.045-0.124
		c-1.233-3.392-4.99-5.145-8.391-3.915l2.256-0.816c3.829-1.385,5.808-5.603,4.42-9.423l-0.051-0.14
		c-1.389-3.819-5.619-5.793-9.448-4.408l2.089-0.756c3.83-1.385,5.808-5.604,4.419-9.423l-0.051-0.139
		c-1.389-3.82-5.618-5.793-9.448-4.408c3.829-1.385,5.808-5.604,4.419-9.423l-0.051-0.14c-1.389-3.819-5.618-5.792-9.448-4.407
		l-16.752,6.058L712.5,773.979z"/>
	<polygon fill="#0595A3" points="677.301,781.881 552.517,781.881 552.681,774.031 661.764,736.703 	"/>
</g>
<g>
	<g>
		<path fill="#575756" d="M456.498,247.771c-0.198,0.908-0.56,2.002-1.24,3.129c-0.68,1.105-1.668,2.276-3.061,3.14
			c-1.382,0.854-3.083,1.521-5.013,1.521c-0.154,0.011-0.318,0.011-0.483,0c-0.757-0.022-1.591-0.186-2.392-0.449
			c-0.461-0.208-0.954-0.361-1.382-0.635c-0.417-0.306-0.878-0.569-1.262-0.919c-1.569-1.401-2.611-3.436-2.721-5.723
			c0.022-0.514-0.022-1.007,0.143-1.608c0.077-0.285,0.11-0.591,0.219-0.854l0.34-0.777c0.099-0.274,0.274-0.492,0.439-0.733
			c0.176-0.23,0.318-0.481,0.505-0.689c0.428-0.383,0.79-0.832,1.305-1.105c0.932-0.689,2.084-0.963,3.203-1.116h0.647
			c0.922,0.066,1.898,0.361,2.655,0.853c0.987,0.591,1.711,1.543,2.128,2.571c0.241,0.503,0.285,1.072,0.384,1.608l-0.022,0.799
			c-0.033,0.263-0.121,0.569-0.186,0.843c-0.34,1.061-1.075,1.959-1.997,2.462c-0.922,0.503-2.029,0.7-2.995,0.449
			c-2.062-0.514-3.137-2.768-2.413-4.442c0.351-0.81,1.064-1.412,1.832-1.608c0.198-0.044,0.384-0.066,0.581-0.099
			c0.23,0.022,0.34,0,0.559,0.055c0.406,0.077,0.713,0.252,0.998,0.471c0.559,0.449,0.79,1.127,0.779,1.729
			c-0.022,0.591-0.362,1.127-0.768,1.379c-0.417,0.263-0.888,0.328-1.239,0.241c-0.373-0.099-0.625-0.317-0.779-0.514
			c-0.274-0.416-0.219-0.711-0.241-0.711c0.022,0,0,0.295,0.296,0.678c0.154,0.175,0.406,0.361,0.746,0.416
			c0.34,0.055,0.735-0.033,1.086-0.285c0.362-0.263,0.615-0.7,0.593-1.215c-0.022-0.492-0.252-1.061-0.724-1.401
			c-0.23-0.164-0.526-0.295-0.801-0.328c-0.11-0.044-0.351-0.011-0.472-0.022c-0.153,0.033-0.307,0.076-0.461,0.109
			c-0.614,0.197-1.163,0.689-1.415,1.335c-0.088,0.164-0.077,0.317-0.121,0.471c-0.022,0.175-0.022,0.449-0.011,0.569
			c0.044,0.175,0.066,0.361,0.121,0.536c0.077,0.175,0.132,0.35,0.219,0.514c0.362,0.656,1.064,1.182,1.799,1.335
			c1.58,0.35,3.423-0.722,3.916-2.396c0.044-0.197,0.099-0.383,0.132-0.602l0.022-0.689c-0.099-0.449-0.132-0.908-0.34-1.324
			c-0.34-0.831-0.932-1.608-1.755-2.068c-0.823-0.481-1.646-0.7-2.666-0.657c-0.943,0.153-1.909,0.372-2.688,0.963
			c-0.428,0.219-0.735,0.602-1.097,0.919c-0.165,0.164-0.285,0.383-0.428,0.569c-0.143,0.197-0.296,0.383-0.384,0.613l-0.296,0.646
			c-0.088,0.219-0.11,0.448-0.175,0.667c-0.154,0.405-0.132,0.963-0.154,1.477c0.066,1.86,0.965,3.764,2.337,4.989
			c0.34,0.317,0.746,0.547,1.108,0.821c0.384,0.241,0.812,0.394,1.207,0.602c0.823,0.285,1.646,0.492,2.589,0.481
			c1.711,0.066,3.357-0.492,4.673-1.247c1.327-0.777,2.326-1.816,3.039-2.834c0.713-1.039,1.119-2.079,1.371-2.954
			c0.197-0.886,0.296-1.597,0.307-2.101c0.011-0.492,0.011-0.755,0.011-0.755s0.022,0.263,0.044,0.755
			C456.673,246.119,456.662,246.852,456.498,247.771z"/>
		<path fill="#EDDFB4" d="M481.253,208.121l-0.867,9.716l-1.448,16.412l-0.954,10.756v0.077l0.011,0.087
			c0.011,0.087,0.011,0.175,0.022,0.285c0,0.055,0.011,0.109,0.011,0.175c0.022,0.492,0,1.226-0.165,2.145
			c-0.198,0.908-0.549,2.002-1.229,3.129c-0.68,1.105-1.668,2.276-3.061,3.14c-0.866,0.536-1.865,0.996-2.951,1.269l-2.062-0.066
			l-1.997,0.109l-3.763,0.219l-6.166-10.493l-0.954-10.832l-1.459-16.412l-0.856-9.716H481.253z"/>
		<path fill="#C3BDAB" d="M465.68,255.113c0.801,0.263,1.646,0.427,2.402,0.449h-21.382c-0.757-0.022-1.591-0.186-2.392-0.449
			c-0.461-0.208-0.954-0.361-1.382-0.635c-0.417-0.306-0.878-0.569-1.262-0.919c-1.569-1.401-2.611-3.436-2.721-5.723
			c0.022-0.514-0.022-1.007,0.143-1.608c0.077-0.285,0.11-0.591,0.219-0.854l0.34-0.777c0.099-0.274,0.274-0.492,0.439-0.733
			c0.176-0.23,0.318-0.481,0.505-0.689c0.428-0.383,0.79-0.832,1.305-1.105c0.932-0.689,2.084-0.963,3.203-1.116h21.382
			c-1.119,0.153-2.271,0.427-3.214,1.116c-0.505,0.273-0.878,0.722-1.295,1.105c-0.197,0.208-0.34,0.459-0.504,0.689
			c-0.165,0.241-0.34,0.459-0.439,0.733l-0.351,0.777c-0.099,0.263-0.143,0.569-0.208,0.854c-0.176,0.602-0.121,1.094-0.143,1.608
			c0.099,2.287,1.141,4.322,2.721,5.723c0.384,0.35,0.845,0.613,1.251,0.919C464.737,254.752,465.23,254.905,465.68,255.113z"/>
		<path fill="#DADADA" d="M468.56,240.956h-2.079c0.664-0.037,1.392,0.078,2.079,0.301V240.956z"/>
		<path fill="#99B0AD" d="M477.868,247.771c-0.197,0.908-0.549,2.002-1.229,3.129c-0.68,1.105-1.668,2.276-3.061,3.14
			c-0.867,0.536-1.865,0.996-2.951,1.269c-0.658,0.153-1.338,0.252-2.062,0.252c-0.615,0.033-1.306-0.044-1.997-0.208
			c-0.296-0.066-0.592-0.142-0.888-0.241c-0.45-0.208-0.944-0.361-1.382-0.635c-0.406-0.306-0.866-0.569-1.251-0.919
			c-1.58-1.401-2.622-3.436-2.721-5.723c0.022-0.514-0.033-1.007,0.143-1.608c0.066-0.285,0.11-0.591,0.208-0.854l0.351-0.777
			c0.099-0.274,0.274-0.492,0.439-0.733c0.165-0.23,0.307-0.481,0.504-0.689c0.417-0.383,0.79-0.832,1.295-1.105
			c0.944-0.689,2.096-0.963,3.214-1.116c0.669-0.033,1.393,0.077,2.084,0.306c0.428,0.131,0.845,0.306,1.217,0.547
			c0.987,0.591,1.711,1.543,2.117,2.571c0.252,0.503,0.296,1.072,0.395,1.608l-0.022,0.799c-0.044,0.263-0.121,0.569-0.186,0.843
			c-0.34,1.061-1.075,1.959-2.008,2.462c-0.472,0.263-0.988,0.438-1.514,0.514c-0.505,0.066-0.998,0.055-1.47-0.066
			c-2.062-0.514-3.149-2.768-2.413-4.442c0.351-0.81,1.053-1.412,1.821-1.608c0.197-0.044,0.395-0.066,0.581-0.099
			c0.241,0.022,0.351,0,0.559,0.055c0.373,0.066,0.658,0.219,0.922,0.416c0.022,0.022,0.055,0.033,0.077,0.055
			c0.56,0.449,0.801,1.127,0.779,1.729c-0.011,0.591-0.351,1.127-0.768,1.379c-0.033,0.022-0.066,0.033-0.088,0.044
			c-0.395,0.219-0.823,0.285-1.152,0.197c-0.373-0.099-0.614-0.317-0.768-0.514c-0.274-0.416-0.23-0.711-0.241-0.711
			c0.011,0-0.011,0.295,0.285,0.678c0.164,0.175,0.417,0.361,0.746,0.416c0.351,0.055,0.746-0.033,1.097-0.285
			c0.011-0.011,0.022-0.022,0.033-0.033c0.329-0.252,0.57-0.678,0.559-1.182c-0.022-0.427-0.208-0.908-0.559-1.247
			c-0.066-0.044-0.11-0.109-0.176-0.153c-0.23-0.164-0.516-0.295-0.79-0.328c-0.121-0.044-0.362-0.011-0.472-0.022
			c-0.154,0.033-0.307,0.076-0.472,0.109c-0.614,0.197-1.152,0.689-1.404,1.335c-0.088,0.164-0.077,0.317-0.132,0.471
			c-0.011,0.175-0.011,0.449,0,0.569c0.044,0.175,0.066,0.361,0.11,0.536c0.077,0.175,0.143,0.35,0.23,0.514
			c0.362,0.656,1.053,1.182,1.788,1.335c0.428,0.099,0.878,0.087,1.317-0.011c1.174-0.263,2.249-1.16,2.611-2.385
			c0.033-0.197,0.099-0.383,0.132-0.602l0.011-0.689c-0.088-0.449-0.121-0.908-0.329-1.324c-0.351-0.831-0.944-1.608-1.755-2.068
			c-0.22-0.131-0.45-0.241-0.669-0.328c-0.615-0.252-1.262-0.361-2.008-0.328c-0.933,0.153-1.909,0.372-2.677,0.963
			c-0.439,0.219-0.746,0.602-1.108,0.919c-0.164,0.164-0.285,0.383-0.428,0.569c-0.143,0.197-0.296,0.383-0.373,0.613l-0.296,0.646
			c-0.099,0.219-0.121,0.448-0.186,0.667c-0.154,0.405-0.121,0.963-0.143,1.477c0.066,1.86,0.954,3.764,2.337,4.989
			c0.34,0.317,0.746,0.547,1.097,0.821c0.384,0.241,0.823,0.394,1.218,0.602c0.812,0.285,1.624,0.492,2.567,0.481h0.011
			c1.711,0.066,3.368-0.492,4.674-1.247c1.327-0.777,2.182-1.867,2.895-2.884c0.713-1.04,1.063-2.372,1.166-3.351
			c0.208-0.886,0.646-1.15,0.668-1.653c0-0.241,0-0.416,0.011-0.547v-0.077c0.011,0.044,0.011,0.099,0.011,0.164
			c0.011,0.088,0.011,0.175,0.022,0.285c0,0.055,0.011,0.109,0.011,0.175C478.055,246.119,478.033,246.852,477.868,247.771z"/>
		<g>
			<path fill="#99B0AD" d="M453.371,208.124h28.801C477.516,199.752,456.466,201.052,453.371,208.124z"/>
			<rect x="462.415" y="200.333" fill="#E6DFCA" width="10.712" height="2.502"/>
		</g>
		<polygon fill="#0593A1" points="473.128,183.508 462.415,183.508 460.225,200.333 475.318,200.333 		"/>
		<polygon fill="#0593A1" points="480.387,217.837 478.939,234.25 455.681,234.25 454.222,217.837 		"/>
		<polygon opacity="0.8" fill="#FFFFFF" points="457.824,239.915 455.424,209.322 460.225,209.322 		"/>
	</g>
	<g>
		<path fill="#575756" d="M539.966,238.922c0.197,0.908,0.559,2.002,1.24,3.129c0.68,1.105,1.668,2.276,3.061,3.14
			c1.382,0.853,3.083,1.521,5.014,1.521c0.153,0.011,0.318,0.011,0.483,0c0.757-0.022,1.591-0.186,2.391-0.449
			c0.461-0.208,0.954-0.361,1.382-0.635c0.417-0.306,0.878-0.569,1.262-0.919c1.569-1.401,2.611-3.436,2.721-5.722
			c-0.022-0.514,0.022-1.007-0.143-1.608c-0.077-0.285-0.11-0.591-0.219-0.854l-0.34-0.777c-0.099-0.274-0.274-0.492-0.439-0.733
			c-0.176-0.23-0.318-0.481-0.505-0.689c-0.428-0.383-0.79-0.832-1.306-1.105c-0.932-0.689-2.084-0.963-3.203-1.116h-0.647
			c-0.922,0.066-1.898,0.361-2.655,0.853c-0.987,0.591-1.711,1.543-2.128,2.571c-0.241,0.503-0.285,1.072-0.384,1.608l0.022,0.799
			c0.033,0.263,0.121,0.569,0.187,0.843c0.34,1.061,1.075,1.959,1.997,2.462c0.922,0.503,2.03,0.7,2.995,0.449
			c2.063-0.514,3.138-2.768,2.413-4.442c-0.351-0.81-1.064-1.412-1.832-1.608c-0.197-0.044-0.384-0.066-0.581-0.099
			c-0.23,0.022-0.34,0-0.559,0.055c-0.406,0.077-0.713,0.252-0.998,0.471c-0.56,0.449-0.79,1.127-0.779,1.729
			c0.022,0.591,0.362,1.127,0.768,1.379c0.417,0.263,0.889,0.328,1.24,0.241c0.373-0.099,0.625-0.317,0.779-0.514
			c0.274-0.416,0.219-0.711,0.241-0.711c-0.022,0,0,0.295-0.296,0.678c-0.154,0.175-0.406,0.361-0.746,0.416
			c-0.34,0.055-0.735-0.033-1.086-0.285c-0.362-0.263-0.614-0.7-0.593-1.215c0.022-0.492,0.252-1.061,0.724-1.401
			c0.23-0.164,0.527-0.295,0.801-0.328c0.11-0.044,0.351-0.011,0.472-0.022c0.154,0.033,0.307,0.077,0.461,0.109
			c0.614,0.197,1.163,0.689,1.415,1.335c0.088,0.164,0.077,0.318,0.121,0.471c0.022,0.175,0.022,0.449,0.011,0.569
			c-0.044,0.175-0.066,0.361-0.121,0.536c-0.077,0.175-0.132,0.35-0.219,0.514c-0.362,0.656-1.064,1.182-1.799,1.335
			c-1.58,0.35-3.423-0.722-3.916-2.396c-0.044-0.197-0.099-0.383-0.132-0.602l-0.022-0.69c0.099-0.448,0.132-0.908,0.34-1.324
			c0.34-0.831,0.932-1.608,1.755-2.068c0.823-0.481,1.646-0.7,2.666-0.657c0.944,0.153,1.909,0.372,2.688,0.963
			c0.428,0.219,0.735,0.602,1.097,0.919c0.164,0.164,0.285,0.383,0.428,0.569c0.143,0.197,0.296,0.383,0.384,0.613l0.296,0.646
			c0.088,0.219,0.11,0.448,0.176,0.667c0.153,0.405,0.131,0.963,0.153,1.477c-0.066,1.86-0.965,3.764-2.337,4.989
			c-0.34,0.317-0.746,0.547-1.108,0.821c-0.384,0.241-0.812,0.394-1.207,0.602c-0.823,0.285-1.646,0.492-2.589,0.481
			c-1.711,0.066-3.357-0.492-4.674-1.247c-1.327-0.777-2.326-1.816-3.039-2.834c-0.713-1.04-1.119-2.079-1.371-2.954
			c-0.198-0.886-0.296-1.598-0.307-2.101c-0.011-0.492-0.011-0.755-0.011-0.755s-0.022,0.263-0.044,0.755
			C539.79,237.27,539.801,238.003,539.966,238.922z"/>
		<path fill="#EDDFB4" d="M515.21,199.272l0.867,9.716l1.448,16.412l0.954,10.756v0.077l-0.011,0.087
			c-0.011,0.087-0.011,0.175-0.022,0.285c0,0.055-0.011,0.109-0.011,0.175c-0.022,0.492,0,1.226,0.164,2.145
			c0.197,0.908,0.548,2.002,1.229,3.129c0.68,1.105,1.668,2.276,3.061,3.14c0.867,0.536,1.865,0.996,2.951,1.269l2.063-0.066
			l1.997,0.109l3.763,0.219l6.165-10.493l0.954-10.832l1.459-16.412l0.856-9.716H515.21z"/>
		<path fill="#C3BDAB" d="M530.783,246.264c-0.801,0.263-1.646,0.427-2.403,0.449h21.382c0.757-0.022,1.591-0.186,2.391-0.449
			c0.461-0.208,0.954-0.361,1.382-0.635c0.417-0.306,0.878-0.569,1.262-0.919c1.569-1.401,2.611-3.436,2.721-5.722
			c-0.022-0.514,0.022-1.007-0.143-1.608c-0.077-0.285-0.11-0.591-0.219-0.854l-0.34-0.777c-0.099-0.274-0.274-0.492-0.439-0.733
			c-0.176-0.23-0.318-0.481-0.505-0.689c-0.428-0.383-0.79-0.832-1.306-1.105c-0.932-0.689-2.084-0.963-3.203-1.116h-21.381
			c1.119,0.153,2.271,0.427,3.214,1.116c0.505,0.273,0.878,0.722,1.295,1.105c0.197,0.208,0.34,0.46,0.505,0.689
			c0.164,0.241,0.34,0.459,0.439,0.733l0.351,0.777c0.099,0.263,0.143,0.569,0.208,0.854c0.175,0.602,0.121,1.094,0.143,1.608
			c-0.099,2.287-1.141,4.322-2.721,5.722c-0.384,0.35-0.845,0.613-1.251,0.919C531.727,245.903,531.233,246.056,530.783,246.264z"/>
		<path fill="#DADADA" d="M527.904,232.107h2.078c-0.664-0.037-1.392,0.078-2.078,0.301V232.107z"/>
		<path fill="#99B0AD" d="M518.595,238.922c0.198,0.908,0.549,2.002,1.229,3.129c0.68,1.105,1.667,2.276,3.061,3.14
			c0.867,0.536,1.865,0.996,2.951,1.269c0.658,0.153,1.339,0.252,2.062,0.252c0.614,0.033,1.305-0.044,1.997-0.208
			c0.296-0.066,0.593-0.142,0.889-0.241c0.45-0.208,0.943-0.361,1.382-0.635c0.406-0.306,0.867-0.569,1.251-0.919
			c1.58-1.401,2.622-3.436,2.721-5.722c-0.022-0.514,0.033-1.007-0.143-1.608c-0.066-0.285-0.11-0.591-0.208-0.854l-0.351-0.777
			c-0.099-0.274-0.274-0.492-0.439-0.733c-0.165-0.23-0.307-0.481-0.505-0.689c-0.417-0.383-0.79-0.832-1.295-1.105
			c-0.944-0.689-2.095-0.963-3.214-1.116c-0.669-0.033-1.393,0.077-2.084,0.306c-0.428,0.131-0.845,0.306-1.218,0.547
			c-0.987,0.591-1.711,1.543-2.117,2.571c-0.252,0.503-0.296,1.072-0.395,1.608l0.022,0.799c0.044,0.263,0.121,0.569,0.187,0.843
			c0.34,1.061,1.075,1.959,2.008,2.462c0.472,0.263,0.987,0.438,1.514,0.514c0.505,0.066,0.998,0.055,1.47-0.066
			c2.063-0.514,3.149-2.768,2.414-4.442c-0.351-0.81-1.053-1.412-1.821-1.608c-0.198-0.044-0.395-0.066-0.581-0.099
			c-0.241,0.022-0.351,0-0.559,0.055c-0.373,0.066-0.658,0.219-0.922,0.416c-0.022,0.022-0.055,0.033-0.077,0.055
			c-0.559,0.449-0.801,1.127-0.779,1.729c0.011,0.591,0.351,1.127,0.768,1.379c0.033,0.022,0.066,0.033,0.088,0.044
			c0.395,0.219,0.823,0.285,1.152,0.197c0.373-0.099,0.614-0.317,0.768-0.514c0.274-0.416,0.23-0.711,0.241-0.711
			c-0.011,0,0.011,0.295-0.285,0.678c-0.165,0.175-0.417,0.361-0.746,0.416c-0.351,0.055-0.746-0.033-1.097-0.285
			c-0.011-0.011-0.022-0.022-0.033-0.033c-0.329-0.252-0.571-0.678-0.559-1.182c0.022-0.427,0.208-0.908,0.559-1.247
			c0.066-0.044,0.11-0.109,0.175-0.153c0.23-0.164,0.516-0.295,0.79-0.328c0.121-0.044,0.362-0.011,0.472-0.022
			c0.154,0.033,0.307,0.077,0.472,0.109c0.614,0.197,1.152,0.689,1.404,1.335c0.088,0.164,0.077,0.318,0.132,0.471
			c0.011,0.175,0.011,0.449,0,0.569c-0.044,0.175-0.066,0.361-0.11,0.536c-0.077,0.175-0.143,0.35-0.23,0.514
			c-0.362,0.656-1.053,1.182-1.788,1.335c-0.428,0.099-0.878,0.087-1.317-0.011c-1.174-0.263-2.249-1.16-2.611-2.385
			c-0.033-0.197-0.099-0.383-0.132-0.602l-0.011-0.69c0.088-0.448,0.121-0.908,0.329-1.324c0.351-0.831,0.944-1.608,1.755-2.068
			c0.219-0.131,0.45-0.241,0.669-0.328c0.614-0.252,1.262-0.361,2.008-0.328c0.932,0.153,1.909,0.372,2.677,0.963
			c0.439,0.219,0.746,0.602,1.108,0.919c0.165,0.164,0.285,0.383,0.428,0.569c0.143,0.197,0.296,0.383,0.373,0.613l0.296,0.646
			c0.099,0.219,0.121,0.448,0.187,0.667c0.154,0.405,0.121,0.963,0.143,1.477c-0.066,1.86-0.954,3.764-2.337,4.989
			c-0.34,0.317-0.746,0.547-1.097,0.821c-0.384,0.241-0.823,0.394-1.218,0.602c-0.812,0.285-1.624,0.492-2.567,0.481h-0.011
			c-1.711,0.066-3.368-0.492-4.673-1.247c-1.327-0.777-2.182-1.867-2.895-2.884c-0.713-1.04-1.063-2.372-1.166-3.351
			c-0.208-0.886-0.646-1.15-0.668-1.653c0-0.241,0-0.416-0.011-0.547v-0.077c-0.011,0.044-0.011,0.099-0.011,0.164
			c-0.011,0.088-0.011,0.175-0.022,0.285c0,0.055-0.011,0.109-0.011,0.175C518.409,237.27,518.431,238.003,518.595,238.922z"/>
		<g>
			<path fill="#99B0AD" d="M543.092,199.275h-28.801C518.947,190.903,539.997,192.202,543.092,199.275z"/>
			<rect x="523.336" y="191.484" fill="#E6DFCA" width="10.712" height="2.502"/>
		</g>
		<polygon fill="#F89F26" points="523.336,174.659 534.048,174.659 536.239,191.484 521.145,191.484 		"/>
		<polygon fill="#F89F26" points="516.077,208.988 517.525,225.401 540.782,225.401 542.241,208.988 		"/>
		<polygon opacity="0.8" fill="#FFFFFF" points="519.595,231.354 517.194,200.761 521.995,200.761 		"/>
	</g>
	<g>
		<g>
			<path fill="#575756" d="M487.495,266.134c-0.197,0.908-0.559,2.002-1.239,3.129c-0.68,1.105-1.668,2.276-3.061,3.14
				c-1.382,0.853-3.083,1.521-5.013,1.521c-0.154,0.011-0.318,0.011-0.483,0c-0.757-0.022-1.591-0.186-2.391-0.449
				c-0.461-0.208-0.954-0.361-1.382-0.635c-0.417-0.306-0.878-0.569-1.262-0.919c-1.569-1.401-2.611-3.436-2.721-5.723
				c0.022-0.514-0.022-1.007,0.143-1.608c0.077-0.285,0.11-0.591,0.219-0.853l0.34-0.777c0.099-0.273,0.274-0.492,0.439-0.733
				c0.176-0.23,0.318-0.481,0.505-0.689c0.428-0.383,0.79-0.831,1.306-1.105c0.932-0.689,2.084-0.963,3.203-1.116h0.647
				c0.922,0.066,1.898,0.361,2.655,0.854c0.987,0.591,1.711,1.543,2.128,2.571c0.241,0.503,0.285,1.072,0.384,1.608l-0.022,0.799
				c-0.033,0.263-0.121,0.569-0.186,0.843c-0.34,1.061-1.075,1.959-1.997,2.462c-0.922,0.504-2.03,0.7-2.995,0.449
				c-2.062-0.514-3.138-2.768-2.413-4.443c0.351-0.81,1.064-1.411,1.832-1.608c0.198-0.044,0.384-0.066,0.581-0.098
				c0.23,0.022,0.34,0,0.559,0.055c0.406,0.077,0.713,0.252,0.998,0.47c0.559,0.449,0.79,1.127,0.779,1.729
				c-0.022,0.591-0.362,1.127-0.768,1.379c-0.417,0.263-0.888,0.328-1.239,0.241c-0.373-0.099-0.625-0.317-0.779-0.514
				c-0.274-0.416-0.219-0.711-0.241-0.711c0.022,0,0,0.295,0.296,0.678c0.154,0.175,0.406,0.361,0.746,0.416
				c0.34,0.055,0.735-0.033,1.086-0.285c0.362-0.262,0.614-0.7,0.593-1.215c-0.022-0.492-0.252-1.061-0.724-1.401
				c-0.23-0.164-0.527-0.295-0.801-0.328c-0.11-0.044-0.351-0.011-0.472-0.022c-0.154,0.033-0.307,0.077-0.461,0.109
				c-0.614,0.197-1.163,0.689-1.415,1.335c-0.088,0.164-0.077,0.317-0.121,0.471c-0.022,0.175-0.022,0.449-0.011,0.569
				c0.044,0.175,0.066,0.361,0.121,0.536c0.077,0.175,0.132,0.35,0.219,0.514c0.362,0.657,1.064,1.182,1.799,1.335
				c1.58,0.35,3.423-0.722,3.916-2.396c0.044-0.197,0.099-0.383,0.132-0.602l0.022-0.689c-0.099-0.449-0.132-0.908-0.34-1.324
				c-0.34-0.832-0.932-1.608-1.755-2.068c-0.823-0.481-1.646-0.7-2.666-0.657c-0.943,0.153-1.909,0.372-2.688,0.963
				c-0.428,0.219-0.735,0.602-1.097,0.919c-0.165,0.164-0.285,0.383-0.428,0.569c-0.143,0.197-0.296,0.383-0.384,0.613l-0.296,0.646
				c-0.088,0.219-0.11,0.449-0.175,0.667c-0.154,0.405-0.132,0.963-0.154,1.477c0.066,1.86,0.965,3.764,2.337,4.989
				c0.34,0.317,0.746,0.547,1.108,0.821c0.384,0.241,0.812,0.394,1.207,0.602c0.823,0.285,1.646,0.492,2.589,0.481
				c1.711,0.066,3.357-0.492,4.673-1.247c1.327-0.777,2.326-1.816,3.039-2.834c0.713-1.04,1.119-2.079,1.371-2.954
				c0.197-0.886,0.296-1.598,0.307-2.101c0.011-0.492,0.011-0.755,0.011-0.755s0.022,0.263,0.044,0.755
				C487.67,264.481,487.659,265.215,487.495,266.134z"/>
			<path fill="#EDDFB4" d="M511.996,218.305l-0.329,9.685l-0.288,8.208l-0.713,8.208l-0.727,8.208l-0.96,10.752v0.082l0.014,0.082
				c0.014,0.096,0.014,0.178,0.027,0.287v0.178c0.027,0.492,0,1.217-0.165,2.134c-0.192,0.917-0.549,2.011-1.221,3.133
				c-0.686,1.108-1.673,2.285-3.059,3.146c-0.878,0.533-1.865,0.999-2.963,1.272l-2.057-0.069l-1.989,0.11l-3.772,0.219
				l-6.159-10.492l-0.96-10.835l-0.617-8.208l-1.221-16.416l-0.727-9.685H511.996z"/>
			<path fill="#C3BDAB" d="M496.677,273.476c0.801,0.263,1.646,0.427,2.403,0.449h-21.382c-0.757-0.022-1.591-0.186-2.391-0.449
				c-0.461-0.208-0.954-0.361-1.382-0.635c-0.417-0.306-0.878-0.569-1.262-0.919c-1.569-1.401-2.611-3.436-2.721-5.723
				c0.022-0.514-0.022-1.007,0.143-1.608c0.077-0.285,0.11-0.591,0.219-0.853l0.34-0.777c0.099-0.273,0.274-0.492,0.439-0.733
				c0.176-0.23,0.318-0.481,0.505-0.689c0.428-0.383,0.79-0.831,1.306-1.105c0.932-0.689,2.084-0.963,3.203-1.116h21.382
				c-1.119,0.153-2.271,0.427-3.214,1.116c-0.505,0.274-0.878,0.722-1.295,1.105c-0.197,0.208-0.34,0.46-0.505,0.689
				c-0.165,0.241-0.34,0.46-0.439,0.733l-0.351,0.777c-0.099,0.263-0.143,0.569-0.208,0.853c-0.176,0.602-0.121,1.094-0.143,1.608
				c0.099,2.287,1.141,4.322,2.721,5.723c0.384,0.35,0.845,0.613,1.251,0.919C495.734,273.114,496.227,273.268,496.677,273.476z"/>
			<path fill="#DADADA" d="M499.557,259.319h-2.078c0.664-0.037,1.392,0.078,2.078,0.3V259.319z"/>
			<path fill="#99B0AD" d="M508.865,266.134c-0.198,0.908-0.549,2.002-1.229,3.129c-0.68,1.105-1.667,2.276-3.061,3.14
				c-0.867,0.536-1.865,0.996-2.951,1.269c-0.658,0.153-1.338,0.252-2.062,0.252c-0.614,0.033-1.305-0.044-1.997-0.208
				c-0.296-0.066-0.592-0.142-0.889-0.241c-0.45-0.208-0.943-0.361-1.382-0.635c-0.406-0.306-0.867-0.569-1.251-0.919
				c-1.58-1.401-2.622-3.436-2.721-5.723c0.022-0.514-0.033-1.007,0.143-1.608c0.066-0.285,0.11-0.591,0.208-0.853l0.351-0.777
				c0.099-0.273,0.274-0.492,0.439-0.733c0.164-0.23,0.307-0.481,0.505-0.689c0.417-0.383,0.79-0.831,1.295-1.105
				c0.944-0.689,2.095-0.963,3.214-1.116c0.669-0.033,1.393,0.077,2.084,0.306c0.428,0.131,0.845,0.306,1.218,0.547
				c0.988,0.591,1.711,1.543,2.117,2.571c0.252,0.503,0.296,1.072,0.395,1.608l-0.022,0.799c-0.044,0.263-0.121,0.569-0.186,0.843
				c-0.34,1.061-1.075,1.959-2.008,2.462c-0.472,0.263-0.987,0.438-1.514,0.514c-0.505,0.066-0.998,0.055-1.47-0.066
				c-2.062-0.514-3.149-2.768-2.413-4.443c0.351-0.81,1.053-1.411,1.821-1.608c0.198-0.044,0.395-0.066,0.582-0.098
				c0.241,0.022,0.351,0,0.559,0.055c0.373,0.066,0.658,0.219,0.922,0.416c0.022,0.022,0.055,0.033,0.077,0.055
				c0.56,0.449,0.801,1.127,0.779,1.729c-0.011,0.591-0.351,1.127-0.768,1.379c-0.033,0.022-0.066,0.033-0.088,0.044
				c-0.395,0.219-0.823,0.285-1.152,0.197c-0.373-0.099-0.614-0.317-0.768-0.514c-0.274-0.416-0.23-0.711-0.241-0.711
				c0.011,0-0.011,0.295,0.285,0.678c0.165,0.175,0.417,0.361,0.746,0.416c0.351,0.055,0.746-0.033,1.097-0.285
				c0.011-0.011,0.022-0.022,0.033-0.033c0.329-0.252,0.571-0.678,0.56-1.182c-0.022-0.427-0.208-0.908-0.56-1.247
				c-0.066-0.044-0.11-0.109-0.175-0.153c-0.23-0.164-0.516-0.295-0.79-0.328c-0.121-0.044-0.362-0.011-0.472-0.022
				c-0.154,0.033-0.307,0.077-0.472,0.109c-0.614,0.197-1.152,0.689-1.404,1.335c-0.088,0.164-0.077,0.317-0.132,0.471
				c-0.011,0.175-0.011,0.449,0,0.569c0.044,0.175,0.066,0.361,0.11,0.536c0.077,0.175,0.143,0.35,0.23,0.514
				c0.362,0.657,1.053,1.182,1.788,1.335c0.428,0.098,0.878,0.087,1.316-0.011c1.174-0.263,2.249-1.16,2.611-2.385
				c0.033-0.197,0.099-0.383,0.132-0.602l0.011-0.689c-0.088-0.449-0.121-0.908-0.329-1.324c-0.351-0.832-0.944-1.608-1.755-2.068
				c-0.22-0.131-0.45-0.241-0.669-0.328c-0.614-0.252-1.261-0.361-2.007-0.328c-0.933,0.153-1.909,0.372-2.677,0.963
				c-0.439,0.219-0.746,0.602-1.108,0.919c-0.165,0.164-0.285,0.383-0.428,0.569c-0.143,0.197-0.296,0.383-0.373,0.613l-0.296,0.646
				c-0.099,0.219-0.121,0.449-0.186,0.667c-0.154,0.405-0.121,0.963-0.143,1.477c0.066,1.86,0.954,3.764,2.337,4.989
				c0.34,0.317,0.746,0.547,1.097,0.821c0.384,0.241,0.823,0.394,1.218,0.602c0.812,0.285,1.624,0.492,2.567,0.481h0.011
				c1.711,0.066,3.368-0.492,4.674-1.247c1.327-0.777,2.182-1.867,2.895-2.884c0.713-1.039,1.063-2.372,1.166-3.351
				c0.208-0.886,0.646-1.15,0.668-1.654c0-0.241,0-0.416,0.011-0.547v-0.076c0.011,0.044,0.011,0.098,0.011,0.164
				c0.011,0.087,0.011,0.175,0.022,0.285c0,0.055,0.011,0.109,0.011,0.175C509.052,264.481,509.03,265.215,508.865,266.134z"/>
			<g>
				<path fill="#99B0AD" d="M484.12,218.312h28.801C508.265,209.94,487.215,211.239,484.12,218.312z"/>
				<rect x="493.164" y="210.521" fill="#E6DFCA" width="10.712" height="2.502"/>
			</g>
			<polygon fill="#DF4937" points="503.876,193.696 493.164,193.696 490.973,210.521 506.067,210.521 			"/>
			<polygon fill="#DF4937" points="511.667,227.99 511.379,236.198 510.666,244.406 486.059,244.406 484.839,227.99 			"/>
			<path fill="#99B0AD" d="M508.98,265.337c-0.327,1.239-0.662,2.421-1.114,2.763l4.141-49.788h0.914L508.98,265.337z"/>
		</g>
		<polygon opacity="0.8" fill="#FFFFFF" points="488.573,250.674 486.173,220.082 490.973,220.082 		"/>
	</g>
	<path fill="#99B0AD" d="M477.983,246.974c-0.327,1.239-0.662,2.421-1.114,2.763l4.389-41.614h0.914L477.983,246.974z"/>
	<path fill="#99B0AD" d="M518.481,238.125c0.327,1.239,0.662,2.421,1.114,2.763l-4.39-41.614h-0.914L518.481,238.125z"/>
</g>
<g>
	<path fill="#819C98" d="M804.793,273.511v60.574h42.514v-60.574h-7.486c0.075,2.085,1.667,3.794,3.701,4.076v0.939
		c-2.561-0.282-4.557-2.404-4.642-5.015H804.793z"/>
	<path fill="#94B3AF" d="M803.729,273.511v60.574h42.523v-60.574h-6.431c0.075,2.085,1.667,3.794,3.701,4.076v0.939
		c-2.561-0.282-4.557-2.404-4.642-5.015H803.729z"/>
	<path fill="#A7CAC6" d="M802.562,273.511v60.574h42.514v-60.574h-5.254c0.075,2.085,1.667,3.794,3.701,4.076v0.939
		c-2.561-0.282-4.557-2.404-4.642-5.015H802.562z"/>
	<path fill="#BCE3DF" d="M854.068,209.188h53.534h1.34h5.321c-0.027,1.898-0.04,3.837-0.054,5.802v1.337
		c-0.134,32.325,1.381,71.562-5.63,75.077h-60.21C854.751,282.995,853.531,242.395,854.068,209.188z"/>
	<g>
		<rect x="838.602" y="275.507" fill="#819C98" width="2.676" height="2.426"/>
		<rect x="832.744" y="275.507" fill="#819C98" width="2.676" height="2.426"/>
		<rect x="826.886" y="275.507" fill="#819C98" width="2.676" height="2.426"/>
		<rect x="821.028" y="275.507" fill="#819C98" width="2.676" height="2.426"/>
		<rect x="815.169" y="275.507" fill="#819C98" width="2.676" height="2.426"/>
		<rect x="809.311" y="275.507" fill="#819C98" width="2.676" height="2.426"/>
		<rect x="803.453" y="275.507" fill="#819C98" width="2.676" height="2.426"/>
	</g>
	<path fill="#6C827F" d="M839.099,273.184c0-3.139,2.183-5.694,4.865-5.694s4.865,2.554,4.865,5.694
		c0,1.624-0.587,3.087-1.522,4.126v-1.671c0.361-0.719,0.581-1.553,0.581-2.454c0-2.621-1.76-4.754-3.923-4.754
		s-3.923,2.133-3.923,4.754c0,1.36,0.479,2.58,1.237,3.447v1.296C839.966,276.906,839.099,275.162,839.099,273.184z"/>
	<path fill="#6C827F" d="M838.114,267.491c2.682,0,4.865,2.554,4.865,5.694c0,0.11-0.009,0.218-0.015,0.327h-0.947
		c0.007-0.109,0.02-0.215,0.02-0.327c0-2.621-1.76-4.754-3.923-4.754c-2.163,0-3.923,2.133-3.923,4.754
		c0,1.36,0.48,2.58,1.237,3.447v1.296c-1.312-1.021-2.179-2.765-2.179-4.743C833.249,270.045,835.432,267.491,838.114,267.491z"/>
	<path fill="#6C827F" d="M832.252,267.491c2.682,0,4.865,2.554,4.865,5.694c0,0.11-0.009,0.218-0.015,0.327h-0.947
		c0.006-0.109,0.02-0.215,0.02-0.327c0-2.621-1.76-4.754-3.923-4.754c-2.163,0-3.923,2.133-3.923,4.754
		c0,1.36,0.48,2.58,1.237,3.447v1.296c-1.312-1.021-2.179-2.765-2.179-4.743C827.387,270.045,829.57,267.491,832.252,267.491z"/>
	<path fill="#6C827F" d="M826.39,267.491c2.682,0,4.865,2.554,4.865,5.694c0,0.11-0.009,0.218-0.015,0.327h-0.947
		c0.006-0.109,0.02-0.215,0.02-0.327c0-2.621-1.76-4.754-3.923-4.754c-2.163,0-3.923,2.133-3.923,4.754
		c0,1.36,0.48,2.58,1.237,3.447v1.296c-1.312-1.021-2.179-2.765-2.179-4.743C821.525,270.045,823.707,267.491,826.39,267.491z"/>
	<path fill="#6C827F" d="M820.527,267.491c2.682,0,4.865,2.554,4.865,5.694c0,0.11-0.009,0.218-0.015,0.327h-0.947
		c0.007-0.109,0.02-0.215,0.02-0.327c0-2.621-1.76-4.754-3.923-4.754s-3.923,2.133-3.923,4.754c0,1.36,0.48,2.58,1.237,3.447v1.296
		c-1.312-1.021-2.179-2.765-2.179-4.743C815.662,270.045,817.845,267.491,820.527,267.491z"/>
	<path fill="#6C827F" d="M814.665,267.491c2.682,0,4.865,2.554,4.865,5.694c0,0.11-0.01,0.218-0.015,0.327h-0.947
		c0.006-0.109,0.02-0.215,0.02-0.327c0-2.621-1.76-4.754-3.923-4.754s-3.923,2.133-3.923,4.754c0,1.36,0.479,2.58,1.237,3.447v1.296
		c-1.312-1.021-2.179-2.765-2.179-4.743C809.8,270.045,811.983,267.491,814.665,267.491z"/>
	<path fill="#6C827F" d="M808.803,267.491c2.682,0,4.865,2.554,4.865,5.694c0,0.11-0.009,0.218-0.015,0.327h-0.947
		c0.006-0.109,0.02-0.215,0.02-0.327c0-2.621-1.76-4.754-3.923-4.754c-2.163,0-3.923,2.133-3.923,4.754
		c0,1.36,0.48,2.58,1.237,3.447v1.296c-1.312-1.021-2.179-2.765-2.179-4.743C803.938,270.045,806.12,267.491,808.803,267.491z"/>
</g>
<g opacity="0.3">
	<path fill="#FFFFFF" d="M827.014,483.874c1.532-0.099,3.08-1.142,3.36-2.653c0.337-1.822-1.251-3.52-3.011-4.086
		c-1.76-0.566-3.662-0.336-5.512-0.332c-3.106,0.005-6.209-0.659-9.039-1.933c-1.194-0.538-2.532-1.611-2.147-2.865
		c0.35-1.14,1.809-1.393,2.989-1.551c1.18-0.158,2.639-0.777,2.57-1.966c-0.059-1.004-1.263-1.557-2.264-1.466
		c-1.002,0.091-1.929,0.587-2.926,0.716s-2.221-0.312-2.395-1.303c-0.187-1.068,0.899-1.868,1.754-2.536
		c2.506-1.958,4.028-5.257,3.49-8.388c-0.538-3.131-3.334-5.834-6.508-5.898c-3.174-0.063-6.212,2.853-5.949,6.02
		c0.103,1.244,0.644,2.401,1.107,3.559c0.463,1.158,0.862,2.404,0.664,3.637c-0.198,1.233-1.172,2.426-2.419,2.47
		c-0.934-1.039-0.919-2.72-1.932-3.682c-0.834-0.793-2.282-0.815-3.144-0.049c-0.862,0.767-1.01,2.21-0.323,3.132
		c0.64,0.859,1.895,1.343,2.022,2.407c0.138,1.161-1.344,1.961-2.47,1.654s-1.926-1.273-2.699-2.148
		c-1.453-1.644-3.223-3.212-5.396-3.517c-2.174-0.305-4.704,1.216-4.712,3.414c-0.008,2.169,2.3,3.657,4.449,3.926
		c2.149,0.268,4.345-0.237,6.489,0.07c0.755,0.108,1.524,0.331,2.094,0.837c0.57,0.506,0.892,1.35,0.612,2.061
		c-0.484,1.231-2.277,1.262-3.442,0.642c-1.165-0.62-2.129-1.661-3.415-1.957c-1.684-0.387-3.567,0.857-3.875,2.561
		c-0.308,1.704,1.021,3.523,2.735,3.744c1.24,0.16,2.444-0.407,3.6-0.888c1.156-0.481,2.472-0.889,3.631-0.422
		s1.789,2.211,0.818,3.004c-0.778,0.635-1.961,0.27-2.902,0.618c-1.067,0.394-1.601,1.824-1.052,2.819
		c0.549,0.995,2.04,1.301,2.94,0.604c0.624-0.483,0.899-1.278,1.321-1.945s1.194-1.275,1.938-1.017
		c0.653,0.227,0.936,1.051,0.778,1.725c-0.158,0.674-0.639,1.221-1.128,1.712c-2.197,2.203-3.472,2.282-3.804,5.374
		c-0.263,2.445,1.423,4.91,3.748,5.697c2.325,0.787,4.526-1.851,5.766-3.977c1.616-2.771-0.54-5.397-0.648-6.739
		c-0.108-1.342,0.803-2.927,2.145-2.839c1.148,0.075,1.875,1.305,2.055,2.442c0.181,1.138,0.032,2.334,0.413,3.421
		c0.688,1.961,3.255,2.989,5.109,2.047c1.854-0.942,2.545-3.627,1.376-5.342c-1.069-1.568-3.422-2.55-3.249-4.443
		c0.087-0.955,0.893-1.734,1.804-2.031c0.911-0.297,1.905-0.192,2.837,0.025c1.313,0.305,2.575,0.825,3.722,1.534
		c1.305,0.807,2.449,1.848,3.729,2.695C823.997,483.312,825.482,483.973,827.014,483.874z"/>
	<circle fill="#FFFFFF" cx="791.631" cy="456.878" r="1.782"/>
	<circle fill="#FFFFFF" cx="786.171" cy="458.359" r="0.988"/>
	<circle fill="#FFFFFF" cx="786.89" cy="451.784" r="1.238"/>
	
		<ellipse transform="matrix(-0.3647 0.9311 -0.9311 -0.3647 1501.5105 -128.1314)" fill="#FFFFFF" cx="794.465" cy="448.152" rx="3.218" ry="3.012"/>
	
		<ellipse transform="matrix(-0.3648 0.9311 -0.9311 -0.3648 1516.5944 -117.9533)" fill="#FFFFFF" cx="798.532" cy="458.351" rx="0.644" ry="0.543"/>
	
		<ellipse transform="matrix(-0.9315 -0.3638 0.3638 -0.9315 1414.0208 1204.6144)" fill="#FFFFFF" cx="820.453" cy="469.144" rx="1.482" ry="1.436"/>
	
		<ellipse transform="matrix(0.3647 -0.9311 0.9311 0.3647 68.8147 1068.848)" fill="#FFFFFF" cx="817.659" cy="483.997" rx="1.436" ry="1.333"/>
	
		<ellipse transform="matrix(0.3647 -0.9311 0.9311 0.3647 66.6489 1079.1642)" fill="#FFFFFF" cx="824.173" cy="490.739" rx="2.475" ry="2.351"/>
	<circle fill="#FFFFFF" cx="819.203" cy="488.586" r="0.792"/>
	
		<ellipse transform="matrix(-0.3647 0.9311 -0.9311 -0.3647 1551.333 -141.5481)" fill="#FFFFFF" cx="823.954" cy="458.446" rx="2.079" ry="2.123"/>
	
		<ellipse transform="matrix(0.3647 -0.9311 0.9311 0.3647 47.3608 1043.9697)" fill="#FFFFFF" cx="788.767" cy="487.276" rx="1.436" ry="1.457"/>
	
		<ellipse transform="matrix(0.3648 -0.9311 0.9311 0.3648 46.5458 1036.9335)" fill="#FFFFFF" cx="783.256" cy="484.353" rx="0.718" ry="0.938"/>
	
		<ellipse transform="matrix(0.3647 -0.9311 0.9311 0.3647 49.7101 1027.7377)" fill="#FFFFFF" cx="778.007" cy="477.44" rx="3.812" ry="3.408"/>
	
		<ellipse transform="matrix(0.3647 -0.9311 0.9311 0.3647 40.9425 1035.9908)" fill="#FFFFFF" cx="779.709" cy="487.99" rx="1.634" ry="1.531"/>
	
		<ellipse transform="matrix(0.3647 -0.9311 0.9311 0.3647 50.4948 1064.7264)" fill="#FFFFFF" cx="805.517" cy="495.359" rx="0.891" ry="0.988"/>
	
		<ellipse transform="matrix(0.3648 -0.9311 0.9311 0.3648 53.7423 1062.3479)" fill="#FFFFFF" cx="805.485" cy="491.785" rx="0.445" ry="0.346"/>
	
		<ellipse transform="matrix(0.3647 -0.9311 0.9311 0.3647 54.9595 1069.1082)" fill="#FFFFFF" cx="810.98" cy="494.277" rx="1.559" ry="1.827"/>
</g>
<g opacity="0.3">
	<path fill="#FFFFFF" d="M809.159,305.652c1.039-0.067,2.089-0.774,2.279-1.8c0.229-1.236-0.848-2.388-2.042-2.771
		c-1.194-0.384-2.484-0.228-3.739-0.225c-2.106,0.003-4.212-0.447-6.131-1.311c-0.81-0.365-1.717-1.093-1.456-1.944
		c0.237-0.773,1.227-0.945,2.027-1.052c0.8-0.107,1.79-0.527,1.743-1.334c-0.04-0.681-0.857-1.056-1.536-0.995
		c-0.679,0.062-1.308,0.398-1.985,0.486c-0.676,0.088-1.506-0.212-1.624-0.884c-0.127-0.724,0.61-1.267,1.19-1.72
		c1.7-1.328,2.732-3.565,2.367-5.689c-0.365-2.124-2.261-3.957-4.414-4c-2.153-0.043-4.213,1.935-4.035,4.083
		c0.07,0.844,0.437,1.629,0.751,2.414c0.314,0.785,0.585,1.63,0.45,2.467c-0.134,0.837-0.795,1.646-1.641,1.675
		c-0.634-0.705-0.623-1.845-1.31-2.498c-0.566-0.538-1.548-0.553-2.133-0.033c-0.584,0.52-0.685,1.499-0.219,2.125
		c0.434,0.582,1.285,0.911,1.371,1.633c0.094,0.788-0.911,1.33-1.675,1.122s-1.306-0.863-1.831-1.457
		c-0.986-1.115-2.186-2.179-3.66-2.385c-1.474-0.207-3.191,0.825-3.196,2.316c-0.005,1.471,1.56,2.481,3.018,2.663
		c1.458,0.182,2.947-0.16,4.401,0.047c0.512,0.073,1.033,0.224,1.42,0.568c0.387,0.343,0.605,0.916,0.415,1.398
		c-0.328,0.835-1.544,0.856-2.334,0.436c-0.79-0.42-1.444-1.127-2.316-1.327c-1.142-0.262-2.419,0.581-2.628,1.737
		c-0.209,1.156,0.692,2.39,1.855,2.539c0.841,0.108,1.658-0.276,2.442-0.603c0.784-0.326,1.677-0.603,2.463-0.286
		c0.786,0.317,1.213,1.5,0.555,2.037c-0.528,0.431-1.33,0.183-1.968,0.419c-0.724,0.267-1.086,1.237-0.713,1.912
		c0.372,0.675,1.384,0.883,1.994,0.41c0.423-0.328,0.61-0.867,0.896-1.32c0.286-0.453,0.81-0.865,1.315-0.689
		c0.443,0.154,0.635,0.713,0.528,1.17c-0.107,0.457-0.434,0.828-0.765,1.161c-1.49,1.494-2.355,1.548-2.58,3.645
		c-0.178,1.659,0.965,3.33,2.542,3.864c1.577,0.534,3.07-1.255,3.911-2.697c1.096-1.879-0.366-3.661-0.44-4.571
		c-0.073-0.91,0.545-1.985,1.455-1.926c0.779,0.051,1.272,0.885,1.394,1.657c0.122,0.772,0.022,1.583,0.28,2.32
		c0.466,1.33,2.208,2.028,3.465,1.388c1.258-0.639,1.726-2.46,0.933-3.624c-0.725-1.064-2.321-1.73-2.204-3.014
		c0.059-0.648,0.606-1.176,1.224-1.378c0.618-0.201,1.292-0.13,1.924,0.017c0.891,0.207,1.747,0.56,2.524,1.041
		c0.885,0.547,1.661,1.254,2.529,1.828C807.113,305.27,808.12,305.719,809.159,305.652z"/>
	<circle fill="#FFFFFF" cx="785.16" cy="287.341" r="1.209"/>
	<circle fill="#FFFFFF" cx="781.457" cy="288.346" r="0.67"/>
	<circle fill="#FFFFFF" cx="781.944" cy="283.886" r="0.839"/>
	
		<ellipse transform="matrix(-0.3647 0.9311 -0.9311 -0.3647 1336.1909 -348.7973)" fill="#FFFFFF" cx="787.082" cy="281.423" rx="2.183" ry="2.043"/>
	
		<ellipse transform="matrix(-0.3648 0.9311 -0.9311 -0.3648 1346.4374 -341.8893)" fill="#FFFFFF" cx="789.841" cy="288.34" rx="0.436" ry="0.369"/>
	
		<ellipse transform="matrix(-0.9315 -0.3638 0.3638 -0.9315 1446.7224 863.8076)" fill="#FFFFFF" cx="804.709" cy="295.661" rx="1.005" ry="0.974"/>
	
		<ellipse transform="matrix(0.3647 -0.9311 0.9311 0.3647 225.3692 941.7706)" fill="#FFFFFF" cx="802.814" cy="305.735" rx="0.974" ry="0.904"/>
	
		<ellipse transform="matrix(0.3647 -0.9311 0.9311 0.3647 223.8897 948.7645)" fill="#FFFFFF" cx="807.232" cy="310.308" rx="1.679" ry="1.595"/>
	<circle fill="#FFFFFF" cx="803.861" cy="308.847" r="0.537"/>
	
		<ellipse transform="matrix(-0.3647 0.9311 -0.9311 -0.3647 1369.981 -357.8981)" fill="#FFFFFF" cx="807.083" cy="288.405" rx="1.41" ry="1.44"/>
	
		<ellipse transform="matrix(0.3647 -0.9311 0.9311 0.3647 210.7985 924.8909)" fill="#FFFFFF" cx="783.217" cy="307.959" rx="0.974" ry="0.988"/>
	
		<ellipse transform="matrix(0.3648 -0.9311 0.9311 0.3648 210.2302 920.114)" fill="#FFFFFF" cx="779.479" cy="305.976" rx="0.487" ry="0.636"/>
	
		<ellipse transform="matrix(0.3647 -0.9311 0.9311 0.3647 212.4033 913.8846)" fill="#FFFFFF" cx="775.92" cy="301.288" rx="2.586" ry="2.311"/>
	
		<ellipse transform="matrix(0.3647 -0.9311 0.9311 0.3647 206.4456 919.4792)" fill="#FFFFFF" cx="777.074" cy="308.444" rx="1.108" ry="1.038"/>
	
		<ellipse transform="matrix(0.3647 -0.9311 0.9311 0.3647 212.9324 938.9718)" fill="#FFFFFF" cx="794.579" cy="313.441" rx="0.604" ry="0.67"/>
	
		<ellipse transform="matrix(0.3648 -0.9311 0.9311 0.3648 215.1101 937.3513)" fill="#FFFFFF" cx="794.557" cy="311.018" rx="0.302" ry="0.234"/>
	
		<ellipse transform="matrix(0.3647 -0.9311 0.9311 0.3647 215.9551 941.9422)" fill="#FFFFFF" cx="798.284" cy="312.708" rx="1.058" ry="1.239"/>
</g>
<g opacity="0.3">
	<path fill="#FFFFFF" d="M567.267,346.123c0.26-0.017,0.523-0.194,0.57-0.45c0.057-0.309-0.212-0.597-0.511-0.693
		c-0.299-0.096-0.621-0.057-0.935-0.056c-0.527,0.001-1.053-0.112-1.533-0.328c-0.203-0.091-0.43-0.273-0.364-0.486
		c0.059-0.193,0.307-0.236,0.507-0.263c0.2-0.027,0.448-0.132,0.436-0.334c-0.01-0.17-0.214-0.264-0.384-0.249
		s-0.327,0.1-0.496,0.122c-0.169,0.022-0.377-0.053-0.406-0.221c-0.032-0.181,0.152-0.317,0.298-0.43
		c0.425-0.332,0.683-0.892,0.592-1.423c-0.091-0.531-0.566-0.99-1.104-1s-1.054,0.484-1.009,1.021
		c0.018,0.211,0.109,0.407,0.188,0.604s0.146,0.408,0.113,0.617c-0.034,0.209-0.199,0.412-0.41,0.419
		c-0.159-0.176-0.156-0.461-0.328-0.625c-0.141-0.134-0.387-0.138-0.533-0.008c-0.146,0.13-0.171,0.375-0.055,0.531
		c0.109,0.146,0.322,0.228,0.343,0.408c0.023,0.197-0.228,0.333-0.419,0.281c-0.191-0.052-0.327-0.216-0.458-0.364
		c-0.247-0.279-0.547-0.545-0.915-0.597c-0.369-0.052-0.798,0.206-0.799,0.579c-0.001,0.368,0.39,0.62,0.755,0.666
		c0.365,0.046,0.737-0.04,1.101,0.012c0.128,0.018,0.258,0.056,0.355,0.142c0.097,0.086,0.151,0.229,0.104,0.35
		c-0.082,0.209-0.386,0.214-0.584,0.109c-0.198-0.105-0.361-0.282-0.579-0.332c-0.286-0.066-0.605,0.145-0.657,0.434
		c-0.052,0.289,0.173,0.598,0.464,0.635c0.21,0.027,0.415-0.069,0.611-0.151c0.196-0.082,0.419-0.151,0.616-0.072
		s0.303,0.375,0.139,0.51c-0.132,0.108-0.333,0.046-0.492,0.105c-0.181,0.067-0.272,0.309-0.178,0.478
		c0.093,0.169,0.346,0.221,0.499,0.102c0.106-0.082,0.153-0.217,0.224-0.33c0.071-0.113,0.203-0.216,0.329-0.172
		c0.111,0.038,0.159,0.178,0.132,0.293c-0.027,0.114-0.108,0.207-0.191,0.29c-0.373,0.374-0.589,0.387-0.645,0.912
		c-0.045,0.415,0.241,0.833,0.636,0.966c0.394,0.134,0.768-0.314,0.978-0.675c0.274-0.47-0.092-0.916-0.11-1.143
		c-0.018-0.228,0.136-0.497,0.364-0.482c0.195,0.013,0.318,0.221,0.349,0.414c0.031,0.193,0.005,0.396,0.07,0.58
		c0.117,0.333,0.552,0.507,0.867,0.347s0.432-0.615,0.233-0.906c-0.181-0.266-0.58-0.433-0.551-0.754
		c0.015-0.162,0.152-0.294,0.306-0.345c0.155-0.05,0.323-0.032,0.481,0.004c0.223,0.052,0.437,0.14,0.631,0.26
		c0.221,0.137,0.416,0.314,0.633,0.457C566.755,346.027,567.007,346.139,567.267,346.123z"/>
	<circle fill="#FFFFFF" cx="561.265" cy="341.543" r="0.302"/>
	<circle fill="#FFFFFF" cx="560.339" cy="341.794" r="0.168"/>
	<circle fill="#FFFFFF" cx="560.46" cy="340.679" r="0.21"/>
	
		<ellipse transform="matrix(-0.3647 0.9311 -0.9311 -0.3647 1083.2675 -58.9556)" fill="#FFFFFF" cx="561.746" cy="340.063" rx="0.546" ry="0.511"/>
	
		<ellipse transform="matrix(-0.3648 0.9311 -0.9311 -0.3648 1085.8459 -57.2028)" fill="#FFFFFF" cx="562.435" cy="341.793" rx="0.109" ry="0.092"/>
	
		<ellipse transform="matrix(-0.9315 -0.3638 0.3638 -0.9315 968.5098 869.6636)" fill="#FFFFFF" cx="566.154" cy="343.624" rx="0.251" ry="0.244"/>
	
		<ellipse transform="matrix(0.3647 -0.9311 0.9311 0.3647 37.0858 746.6398)" fill="#FFFFFF" cx="565.68" cy="346.143" rx="0.244" ry="0.226"/>
	
		<ellipse transform="matrix(0.3647 -0.9311 0.9311 0.3647 36.7052 748.3723)" fill="#FFFFFF" cx="566.785" cy="347.287" rx="0.42" ry="0.399"/>
	<circle fill="#FFFFFF" cx="565.942" cy="346.922" r="0.134"/>
	
		<ellipse transform="matrix(-0.3647 0.9311 -0.9311 -0.3647 1091.7162 -61.2362)" fill="#FFFFFF" cx="566.748" cy="341.809" rx="0.353" ry="0.36"/>
	<circle fill="#FFFFFF" cx="560.779" cy="346.7" r="0.244"/>
	
		<ellipse transform="matrix(0.3648 -0.9311 0.9311 0.3648 33.2643 741.1675)" fill="#FFFFFF" cx="559.844" cy="346.204" rx="0.122" ry="0.159"/>
	
		<ellipse transform="matrix(0.3647 -0.9311 0.9311 0.3647 33.8349 739.6524)" fill="#FFFFFF" cx="558.954" cy="345.031" rx="0.647" ry="0.578"/>
	
		<ellipse transform="matrix(0.3647 -0.9311 0.9311 0.3647 32.3337 741.0341)" fill="#FFFFFF" cx="559.242" cy="346.821" rx="0.277" ry="0.26"/>
	
		<ellipse transform="matrix(0.3647 -0.9311 0.9311 0.3647 33.964 745.9219)" fill="#FFFFFF" cx="563.62" cy="348.071" rx="0.151" ry="0.168"/>
	
		<ellipse transform="matrix(0.3648 -0.9311 0.9311 0.3648 34.4835 745.4767)" fill="#FFFFFF" cx="563.615" cy="347.465" rx="0.076" ry="0.059"/>
	
		<ellipse transform="matrix(0.3647 -0.9311 0.9311 0.3647 34.7145 746.6561)" fill="#FFFFFF" cx="564.547" cy="347.887" rx="0.265" ry="0.31"/>
</g>
</svg>
