<?xml version="1.0" encoding="utf-8"?>
<!-- Generator: Adobe Illustrator 17.0.0, SVG Export Plug-In . SVG Version: 6.00 Build 0)  -->
<!DOCTYPE svg PUBLIC "-//W3C//DTD SVG 1.1//EN" "http://www.w3.org/Graphics/SVG/1.1/DTD/svg11.dtd">
<svg version="1.1" id="Layer_1" xmlns="http://www.w3.org/2000/svg" xmlns:xlink="http://www.w3.org/1999/xlink" x="0px" y="0px"
	 width="1337.386px" height="780.142px" viewBox="0 0 1337.386 780.142" enable-background="new 0 0 1337.386 780.142"
	 xml:space="preserve">
<linearGradient id="SVGID_1_" gradientUnits="userSpaceOnUse" x1="585.5677" y1="720.0227" x2="581.382" y2="326.0098" gradientTransform="matrix(1 0 0 -1 84 755.142)">
	<stop  offset="0" style="stop-color:#FF7BAC;stop-opacity:0"/>
	<stop  offset="0.0516" style="stop-color:#DD6898;stop-opacity:0.0761"/>
	<stop  offset="0.1365" style="stop-color:#AC4D7B;stop-opacity:0.2015"/>
	<stop  offset="0.2235" style="stop-color:#813562;stop-opacity:0.33"/>
	<stop  offset="0.3112" style="stop-color:#5E224E;stop-opacity:0.4594"/>
	<stop  offset="0.3997" style="stop-color:#43133E;stop-opacity:0.59"/>
	<stop  offset="0.4894" style="stop-color:#300833;stop-opacity:0.7224"/>
	<stop  offset="0.581" style="stop-color:#25022C;stop-opacity:0.8576"/>
	<stop  offset="0.6774" style="stop-color:#21002A"/>
	<stop  offset="1" style="stop-color:#1C002A;stop-opacity:0.9"/>
</linearGradient>
<rect x="-2.896" y="0" fill="url(#SVGID_1_)" width="1337.386" height="780.142"/>
<path fill="#00ACA1" d="M777.283,781.881H552.517l0.164-7.85l1.23-53.274c0.328-15.332,14.553-28.497,34.476-31.932l76.493-13.124
	l76.534,13.124c19.882,3.435,34.148,16.6,34.476,31.932L777.283,781.881z"/>
<path fill="#CF9359" d="M673.91,739.496c-0.036-0.041-0.072-0.082-0.108-0.123c-2.948-3.377-2.113-8.397,1.59-11.267
	c14.102-11.182,21.651-12.431,32.289-25.448c2.813-3.355,7.75-3.941,11.292-1.324c0.043,0.032,0.086,0.064,0.129,0.096
	c3.536,2.615,4.218,7.625,1.256,11.202c-11.114,13.726-19.189,15.65-33.863,27.466C682.61,743.167,676.853,742.871,673.91,739.496z"
	/>
<g>
	<path fill="#7B6A58" d="M781.353,624.234c-9.066,6.648-7.99,20.576-5.683,22.089c2.937,1.926,3.158-1.053,12.321-6.253
		c10.407-5.906,12.95-16.75,9.53-28.284C791.88,622.898,787.726,619.561,781.353,624.234z"/>
	<path fill="#F5DDA2" d="M676.627,773.786c26.991-31.63,53.76-63.442,80.181-95.53l-11.052-8.894
		c-27.448,34.535-54.519,69.377-81.332,104.424H676.627z"/>
	<path fill="#DADADA" d="M755.327,681.299c11.76-16.112,20.554-28.199,27.328-37.641l-8.458-6.807
		c-7.821,8.6-17.807,19.727-31.11,34.597L755.327,681.299z"/>
	<path fill="#FFFFFF" d="M774.272,638.86c-6.496,7.142-18.214,19.623-29.262,31.972l3.029,2.437
		c9.683-11.969,21.238-26.06,27.733-33.202L774.272,638.86z"/>
</g>
<polygon fill="#E6332A" points="633.318,775.058 669.502,775.058 663.765,689.452 639.054,689.452 "/>
<polygon fill="#FC382E" points="604.655,781.872 650.674,781.872 651.554,689.452 620.126,689.452 "/>
<path fill="#D93028" d="M710.854,690.77c-30.329,6.097-61.568,6.136-91.912,0.113c-2.829-0.559-4.676-2.976-4.145-5.32
	c0.913-4.098,4.558-8.112,5.471-12.209c1.015-4.558-0.701-9.198,0.315-13.756c0.532-2.346,2.888-3.813,5.268-3.342
	c25.754,5.111,52.267,5.079,78.008-0.096c2.38-0.478,4.737,0.985,5.277,3.33c0.96,4.258-0.544,8.01,0.416,12.267
	c0.99,4.393,4.443,9.291,5.433,13.683C715.524,687.783,713.679,690.203,710.854,690.77z"/>
<path fill="#FFD2A1" d="M663.988,660.999h-0.539c0.09,0,0.18,0,0.27,0C663.808,660.998,663.898,660.999,663.988,660.999z"/>
<path fill="#FFD2A1" d="M665.797,660.999h0.539c-0.091,0-0.181,0-0.27,0C665.978,660.998,665.888,660.999,665.797,660.999z"/>
<path fill="#FFD2A1" d="M603.86,567.059c0.076,0.001,0.151-0.013,0.227-0.009c0.317,0.017,0.627,0.074,0.936,0.146
	c0.058,0.012,0.116,0.018,0.173,0.031c1.03,0.274,2.038,0.853,3.09,1.653c0.111,2.634,1.444,33.718,1.578,35.369
	c-0.327,0.093-0.653,0.233-0.98,0.279c-1.074,0.186-2.194,0.046-3.268-0.373c-4.574-1.722-8.775-8.287-10.129-16.666
	c-1.681-10.335,1.587-19.46,7.328-20.391c0.033-0.005,0.068,0,0.102-0.004l0.001,0.018
	C603.24,567.061,603.551,567.055,603.86,567.059z"/>
<path fill="#FFD2A1" d="M725.926,567.059c-0.076,0.001-0.151-0.013-0.227-0.009c-0.317,0.017-0.627,0.074-0.937,0.146
	c-0.057,0.012-0.115,0.018-0.173,0.031c-1.031,0.274-2.038,0.853-3.09,1.653c-0.111,2.634-1.444,33.718-1.578,35.369
	c0.326,0.093,0.653,0.233,0.98,0.279c1.074,0.186,2.194,0.046,3.267-0.373c4.574-1.722,8.775-8.287,10.129-16.666
	c1.681-10.335-1.587-19.46-7.328-20.391c-0.034-0.005-0.068,0-0.102-0.004l-0.001,0.018
	C726.546,567.061,726.235,567.055,725.926,567.059z"/>
<path opacity="0.5" fill="#7D4E24" enable-background="new    " d="M611.731,572.314c-0.362-0.541-0.761-0.991-1.155-1.452
	c0.373,0.353,0.76,0.727,1.155,1.117V572.314z"/>
<path opacity="0.5" fill="#7D4E24" enable-background="new    " d="M718.054,572.314c0.362-0.541,0.761-0.991,1.155-1.452
	c-0.373,0.353-0.759,0.727-1.155,1.117V572.314z"/>
<path fill="#FFD2A1" d="M663.449,518.75c0,0-48.742,2.435-51.237,22c-0.209,1.22-0.377,2.458-0.377,3.738l0.255,27.831v0.008
	c-0.124-0.122-0.237-0.23-0.358-0.349v0.335c-0.361-0.541-0.761-0.991-1.155-1.452c-0.801-0.758-1.559-1.425-2.29-1.982
	c0.111,2.634,1.444,33.718,1.578,35.369c2.521,11.918,5.882,21.322,10.176,27.607c5.088,7.448,9.009,13.035,12.649,17.271
	l0.005,0.005c6.201,7.161,11.587,10.257,20.517,11.356c2.968,0.366,6.327,0.51,10.238,0.51c0.09,0,0.18,0,0.27,0
	c0.089,0,0.18,0,0.269,0c0.313,0,0.6-0.007,0.905-0.009c0.305,0.002,0.593,0.009,0.905,0.009c0.09,0,0.18,0,0.27,0
	c0.089,0,0.179,0,0.27,0c3.911,0,7.269-0.145,10.238-0.51c8.93-1.099,14.316-4.195,20.515-11.354l0.007-0.008
	c3.64-4.237,7.562-9.823,12.649-17.271c4.295-6.285,7.655-15.689,10.176-27.607c0.134-1.651,1.468-32.735,1.579-35.369
	c-0.732,0.556-1.489,1.224-2.29,1.982c-0.395,0.46-0.794,0.91-1.155,1.452v-0.335c-0.121,0.119-0.234,0.227-0.358,0.349v-0.008
	l0.255-27.831"/>
<path fill="#060015" d="M715.804,509.341c-12.447-13.167-24.894-17.434-49.788-17.434c-0.386,0-0.742,0.011-1.122,0.013
	c-0.38-0.002-0.737-0.013-1.122-0.013c-24.895,0-37.341,4.267-49.788,17.434c-8.606,9.104-13.35,21.229-12.883,33.751l1.819,24.004
	l0.001,0.018c0.32-0.052,0.631-0.058,0.94-0.055c0.075,0.001,0.152-0.012,0.227-0.009c0.317,0.018,0.627,0.074,0.937,0.146
	c0.057,0.013,0.116,0.016,0.173,0.031c1.03,0.275,2.038,0.853,3.09,1.653c0.111,2.634,1.444,33.718,1.578,35.369
	c2.521,11.918,5.153,32.324,10.176,42.173c4.096,8.033,9.009,13.035,12.649,17.271l0.007,0.007
	c6.198,7.158,11.585,10.254,20.515,11.354c2.968,0.365,11.377,0.503,11.682,0.501c0.305,0.002,8.714-0.136,11.682-0.501
	c8.93-1.1,14.316-4.195,20.515-11.354l0.007-0.007c3.64-4.237,8.537-9.246,12.649-17.271c4.667-9.107,7.655-30.256,10.176-42.173
	c0.134-1.651,1.468-32.735,1.579-35.369c1.052-0.8,2.059-1.378,3.089-1.653c0.057-0.015,0.116-0.018,0.173-0.031
	c0.309-0.072,0.62-0.129,0.937-0.146c0.074-0.003,0.151,0.01,0.226,0.009c0.31-0.003,0.62,0.002,0.94,0.055l0.002-0.018
	l1.819-24.004C729.153,530.569,724.41,518.444,715.804,509.341z M674.625,632.221h-19.464c-3.895,0-7.053-2.735-7.053-6.11
	s3.157-6.11,7.053-6.11h19.464c3.895,0,7.053,2.736,7.053,6.11C681.678,629.485,678.52,632.221,674.625,632.221z M689.861,617.843
	c-5.491-3.266-10.273-5.042-15.447-5.974c-4.193-0.755-13.694-0.687-18.911,0.395c-4.868,1.009-10.781,2.726-15.58,5.58
	c-8.775,5.307-20.771-6.518-22.919-13.361c-2.107-6.704-4.893-36.105-4.953-36.164l-0.218-23.829c0-1.281,0.168-2.518,0.377-3.738
	c36.992-27.337,80.54-25.248,105.362,0c0.209,1.22,0.377,2.458,0.377,3.738l-0.215,23.548c-0.06,0.06-0.04,1.075-0.02,2.103
	c0,0-2.829,27.639-4.936,34.343C710.633,611.326,698.637,623.151,689.861,617.843z"/>
<g>
	<path fill="#D93028" d="M723.166,540.99c-38.725,8.075-80.66,7.949-125.659,0v-26.398h125.659V540.99z"/>
	<path fill="#FC382E" d="M746.331,522.069c8.276,19.86-18.351,37.291-84.353,26.315c-70.455-11.716-75.659-29.391-72.342-50.643
		c3.317-21.251,44.395-38.646,83.278-12.027C702.746,506.136,736.185,497.723,746.331,522.069z"/>
	<path fill="#3C3C3B" d="M672.307,499.3h1.933c7.253-11.649,11.471-23.19,8.525-34.478l-11.703-2.93
		C675.896,474.395,675.288,486.857,672.307,499.3z"/>
</g>
<polygon fill="#FFCF9F" points="697.155,770.209 659.099,781.711 647.604,745.824 685.479,733.756 "/>
<path fill="#FAC48E" d="M705.604,754.795l-0.051-0.14c-1.388-3.819,0.59-8.038,4.419-9.423l17.623-6.547
	c3.829-1.385,8.059,0.589,9.448,4.408l0.051,0.14c1.389,3.819-0.59,8.038-4.419,9.423l-17.623,6.547
	C711.223,760.588,706.993,758.615,705.604,754.795z"/>
<path fill="#FAC48E" d="M707.649,768.852l-0.045-0.124c-1.233-3.392,0.524-7.139,3.925-8.369l15.156-5.444
	c3.401-1.23,7.158,0.523,8.391,3.915l0.045,0.124c1.233,3.392-0.524,7.139-3.925,8.369l-15.155,5.444
	C712.639,773.996,708.882,772.244,707.649,768.852z"/>
<path fill="#FAC48E" d="M704.355,725.634l-0.078-0.127c-2.117-3.471-1.013-7.996,2.467-10.108l23.085-12.27
	c3.48-2.112,8.017-1.011,10.134,2.46l0.078,0.127c2.117,3.47,1.013,7.996-2.467,10.108l-23.085,12.27
	C711.01,730.205,706.472,729.104,704.355,725.634z"/>
<path fill="#FAC48E" d="M702.081,741.391l-0.053-0.139c-1.445-3.799,0.472-8.046,4.281-9.487l20.54-9.898
	c3.808-1.441,8.067,0.47,9.512,4.269l0.053,0.139c1.445,3.799-0.472,8.046-4.281,9.486l-20.54,9.898
	C707.784,747.1,703.526,745.19,702.081,741.391z"/>
<path fill="#FFCF9F" d="M674.605,764.836l-4.953-13.623c-4.086-11.238,1.736-23.651,13.004-27.726l16.685-6.034l19.749,54.319
	l-16.685,6.034C691.137,781.88,678.691,776.074,674.605,764.836z"/>
<path fill="#FFCF9F" d="M712.5,773.979l12.408-4.487c3.401-1.23,5.158-4.977,3.925-8.369l-0.045-0.124
	c-1.233-3.392-4.99-5.145-8.391-3.915l2.256-0.816c3.829-1.385,5.808-5.603,4.42-9.423l-0.051-0.14
	c-1.389-3.819-5.619-5.793-9.448-4.408l2.089-0.756c3.83-1.385,5.808-5.604,4.419-9.423l-0.051-0.139
	c-1.389-3.82-5.618-5.793-9.448-4.408c3.829-1.385,5.808-5.604,4.419-9.423l-0.051-0.14c-1.389-3.819-5.618-5.792-9.448-4.407
	l-16.752,6.058L712.5,773.979z"/>
<polygon fill="#0595A3" points="677.301,781.881 552.517,781.881 552.681,774.031 661.764,736.703 "/>
<g>
	<path fill="#474C5A" d="M1322.811,864.527c-2.649-9.272-11.193-16.081-21.304-16.081c-11.136,0-20.376,8.258-21.926,18.971
		c-4.307-1.428-8.272-0.692-10.606,0.042c-1.532-10.734-10.781-19.014-21.931-19.014c-10.232,0-18.863,6.974-21.399,16.417
		c-0.767,0.625-2.057,1.513-3.968,2.324v3.417c0,0,1.898,0.773,3.361,2.552c1.27,11.02,10.652,19.606,22.006,19.606
		c12.198,0,22.123-9.907,22.156-22.097c1.784-0.661,5.849-1.744,10.149-0.023c0.021,12.2,9.952,22.119,22.157,22.119
		c11.193,0,20.469-8.345,21.947-19.139c1.488-2.112,3.716-3.019,3.716-3.019v-3.417
		C1324.881,866.215,1323.485,865.135,1322.811,864.527z M1247.045,891.519c-11.533,0-20.915-9.383-20.915-20.916
		s9.382-20.915,20.915-20.915c10.611,0,19.395,7.944,20.733,18.196c0.112,0.858,0.176,1.73,0.18,2.617
		c0,0.035,0.003,0.069,0.003,0.103C1267.96,882.136,1258.577,891.519,1247.045,891.519z M1301.508,891.519
		c-11.533,0-20.916-9.383-20.916-20.916c0-0.024,0.002-0.048,0.002-0.071c0.003-0.902,0.068-1.789,0.182-2.661
		c1.344-10.245,10.125-18.182,20.731-18.182c11.533,0,20.915,9.382,20.915,20.915S1313.04,891.519,1301.508,891.519z"/>
	<g>
		<path fill="#E89596" d="M1247.05,849.743c-11.533,0-20.915,9.382-20.915,20.915c0,1.645,0.197,3.244,0.558,4.781l25.143-25.143
			C1250.298,849.935,1248.696,849.743,1247.05,849.743z"/>
		<g>
			<path fill="#E89596" d="M1267.963,870.555c-0.004-0.887-0.068-1.759-0.18-2.617c-0.918-7.03-5.337-12.973-11.445-16.015
				l-28.022,28.022c3.427,6.885,10.535,11.629,18.733,11.629c11.533,0,20.916-9.383,20.916-20.916
				C1267.965,870.624,1267.963,870.59,1267.963,870.555z"/>
			<path fill="#EDAAAB" d="M1251.835,850.296l-25.143,25.143c0.37,1.578,0.918,3.087,1.624,4.506l28.022-28.022
				C1254.92,851.217,1253.412,850.667,1251.835,850.296z"/>
		</g>
	</g>
	<g>
		<path fill="#E89596" d="M1301.477,849.688c-11.533,0-20.915,9.382-20.915,20.915c0,1.678,0.204,3.308,0.579,4.873l25.213-25.212
			C1304.788,849.888,1303.156,849.688,1301.477,849.688z"/>
		<path fill="#E89596" d="M1322.39,870.5c-0.004-0.887-0.068-1.759-0.18-2.617c-0.914-7.001-5.301-12.923-11.37-15.977
			l-28.057,28.058c3.441,6.844,10.526,11.554,18.695,11.554c11.533,0,20.916-9.383,20.916-20.916
			C1322.392,870.569,1322.39,870.535,1322.39,870.5z"/>
		<path fill="#EDAAAB" d="M1306.353,850.264l-25.213,25.212c0.377,1.573,0.931,3.076,1.641,4.489l28.057-28.058
			C1309.427,851.197,1307.925,850.641,1306.353,850.264z"/>
	</g>
</g>
<g>
	<path fill="none" d="M1101.934,844.939c-10.034,0-18.198,8.164-18.198,18.198c0,10.035,8.164,18.199,18.198,18.199
		c10.035,0,18.198-8.164,18.198-18.199C1120.133,853.103,1111.969,844.939,1101.934,844.939z"/>
	<path fill="none" d="M1049.927,844.939c-10.035,0-18.198,8.164-18.198,18.198c0,10.035,8.164,18.199,18.198,18.199
		s18.198-8.164,18.198-18.199C1068.125,853.103,1059.961,844.939,1049.927,844.939z"/>
	<path fill="#323232" d="M1117.19,847.767c-6.49-5.701-17.779-8.31-26.462-3.135c-4.585,2.733-7.171,6.04-8.562,8.553
		c-0.976-1.334-2.81-1.493-6.132-1.493c-3.412,0-5.274,0.163-6.242,1.599c-1.377-2.526-3.942-5.887-8.592-8.659
		c-8.682-5.174-20.276-2.565-26.766,3.135c-6.49,5.701-11.242,6.03-11.242,6.03v5.262c0,0,2.821,0,3.61,1.491
		c0.654,1.236,1.211,3.73,3.131,4.551c0.99,10.083,9.585,17.989,19.924,17.989c11.002,0,19.987-8.951,19.987-19.953
		c0-1.298-0.111-2.567-0.349-3.796c0.75-0.635,1.633-1.52,1.779-2.299c0,0-0.113-0.597-0.481-1.567
		c0.301-1.636,0.372-2.029,5.224-2.029c4.364,0,4.803,0.368,5.106,1.879c-0.415,1.058-0.544,1.717-0.544,1.717
		c0.146,0.779,1.02,1.664,1.77,2.299c-0.238,1.23-0.367,2.498-0.367,3.796c0,11.002,8.95,19.953,19.952,19.953
		c10.346,0,18.875-7.915,19.856-18.008c1.869-0.841,2.381-3.307,3.03-4.532c0.79-1.491,3.373-1.491,3.373-1.491v-5.262
		C1128.193,853.797,1123.68,853.468,1117.19,847.767z M1049.927,881.335c-10.035,0-18.198-8.164-18.198-18.199
		c0-10.034,8.164-18.198,18.198-18.198s18.198,8.164,18.198,18.198C1068.125,873.171,1059.961,881.335,1049.927,881.335z
		 M1101.934,881.335c-10.034,0-18.198-8.164-18.198-18.199c0-10.034,8.164-18.198,18.198-18.198
		c10.035,0,18.198,8.164,18.198,18.198C1120.133,873.171,1111.969,881.335,1101.934,881.335z"/>
</g>
<g>
	<g>
		<g>
			<path d="M934.302,832.416c-0.768,0.365,6.426-1.403,8.647-0.292c2.088,1.044,3.261,6.021,2.112,7.943
				c-1.149,1.922-5.249,5.309-5.249,5.309L934.302,832.416z"/>
		</g>
		<path d="M918.299,840.139c5.966,0,11.136,3.474,13.678,8.548c-2.541,5.075-7.712,8.548-13.678,8.548
			c-5.965,0-11.136-3.474-13.677-8.548C907.162,843.613,912.333,840.139,918.299,840.139z M911.555,844.672
			c-1.607,1.025-2.969,2.398-3.992,4.015c1.023,1.617,2.385,2.99,3.992,4.015c2.019,1.288,4.351,1.969,6.744,1.969
			c2.393,0,4.725-0.681,6.744-1.969c1.607-1.025,2.969-2.398,3.992-4.015c-1.023-1.617-2.385-2.99-3.992-4.015
			c-0.105-0.067-0.21-0.132-0.317-0.195c0.266,0.73,0.412,1.518,0.412,2.34c0,3.777-3.062,6.839-6.839,6.839
			c-3.777,0-6.839-3.062-6.839-6.839c0-0.822,0.146-1.61,0.412-2.34C911.765,844.541,911.66,844.605,911.555,844.672z
			 M918.299,845.962c0,1.416,1.148,2.564,2.565,2.564c1.417,0,2.565-1.148,2.565-2.564s-1.148-2.565-2.565-2.565
			C919.447,843.398,918.299,844.546,918.299,845.962z"/>
	</g>
	<g>
		<g>
			<g>
				<path d="M847.769,832.416c0.768,0.365-6.426-1.403-8.647-0.292c-2.088,1.044-3.261,6.021-2.112,7.943
					c1.149,1.922,5.249,5.309,5.249,5.309L847.769,832.416z"/>
			</g>
			<path d="M933.796,831.664c-8.581-5.213-23.242-2.505-30.757,1.114c-6.422,3.092-10.809,3.136-11.95,3.082c0-0.012,0-0.02,0-0.02
				s-0.02,0.002-0.054,0.005c-0.034-0.003-0.054-0.005-0.054-0.005s0,0.008,0,0.02c-1.141,0.053-5.528,0.01-11.95-3.082
				c-7.515-3.619-22.176-6.326-30.757-1.114c-9.531,5.79-8.37,19.982-4.758,27.207c3.612,7.225,10.58,9.158,18.814,9.257
				c8.234,0.099,18.121-3.417,21.433-12.247c1.399-3.73,3.528-12.683,7.272-13.062c3.744,0.378,5.873,9.332,7.272,13.062
				c3.312,8.831,13.199,12.346,21.433,12.247c8.234-0.099,15.201-2.032,18.814-9.257
				C942.166,851.646,943.327,837.454,933.796,831.664z M877.918,858.385c-5.705,6.68-17.663,9.492-25.743,4.557
				c-8.079-4.935-11.762-20.398-2.014-27.855c9.473-7.247,30.541,0.752,32.35,5.623
				C884.321,845.582,883.624,851.705,877.918,858.385z M929.896,862.942c-8.08,4.935-20.038,2.123-25.744-4.557
				c-5.706-6.681-6.402-12.804-4.593-17.675c1.81-4.871,22.877-12.87,32.35-5.623C941.658,842.544,937.975,858.008,929.896,862.942z
				"/>
		</g>
		<path d="M863.772,840.139c-5.966,0-11.137,3.474-13.678,8.548c2.541,5.075,7.712,8.548,13.678,8.548
			c5.965,0,11.136-3.474,13.677-8.548C874.908,843.613,869.737,840.139,863.772,840.139z M870.516,844.672
			c1.607,1.025,2.969,2.398,3.992,4.015c-1.023,1.617-2.385,2.99-3.992,4.015c-2.02,1.288-4.352,1.969-6.744,1.969
			c-2.393,0-4.725-0.681-6.744-1.969c-1.607-1.025-2.969-2.398-3.992-4.015c1.023-1.617,2.385-2.99,3.992-4.015
			c0.105-0.067,0.211-0.132,0.317-0.195c-0.266,0.73-0.411,1.518-0.411,2.34c0,3.777,3.062,6.839,6.839,6.839
			c3.777,0,6.839-3.062,6.839-6.839c0-0.822-0.146-1.61-0.412-2.34C870.305,844.541,870.411,844.605,870.516,844.672z
			 M863.772,845.962c0,1.416-1.148,2.564-2.565,2.564c-1.416,0-2.565-1.148-2.565-2.564s1.148-2.565,2.565-2.565
			C862.624,843.398,863.772,844.546,863.772,845.962z"/>
	</g>
</g>
<g>
	<circle fill="#70CACD" cx="690.158" cy="579.162" r="19.778"/>
	<path fill="#008EA7" d="M679.373,566.834c0,0-0.794,12.376,8.409,13.804c9.203,1.428,18.247,0.952,18.723,2.539
		c0.476,1.587-5.236,13.962-19.357,13.01C673.026,595.236,669.535,571.277,679.373,566.834z"/>
	<path fill="#F5EFDB" d="M704.315,571.912c0,0-3.967-9.361-12.852-7.933C682.578,565.406,709.323,582.199,704.315,571.912z"/>
	<circle fill="#70CACD" cx="639.643" cy="579.162" r="19.778"/>
	<path fill="#315160" d="M639.643,600.039c-11.512,0-20.878-9.365-20.878-20.878c0-11.512,9.365-20.878,20.878-20.878
		c11.512,0,20.878,9.366,20.878,20.878C660.521,590.674,651.155,600.039,639.643,600.039z M639.643,560.484
		c-10.299,0-18.678,8.379-18.678,18.678c0,10.299,8.379,18.678,18.678,18.678c10.299,0,18.678-8.379,18.678-18.678
		C658.32,568.863,649.942,560.484,639.643,560.484z"/>
	<path fill="#315160" d="M690.158,600.039c-11.512,0-20.878-9.365-20.878-20.878c0-11.512,9.365-20.878,20.878-20.878
		c11.512,0,20.878,9.366,20.878,20.878C711.035,590.674,701.669,600.039,690.158,600.039z M690.158,560.484
		c-10.299,0-18.678,8.379-18.678,18.678c0,10.299,8.379,18.678,18.678,18.678s18.677-8.379,18.677-18.678
		C708.835,568.863,700.457,560.484,690.158,560.484z"/>
	<path fill="#315160" d="M659.941,580.131l-1.042-1.937c0.286-0.154,7.065-3.733,12.143,0.089l-1.323,1.757
		C665.772,577.071,659.999,580.1,659.941,580.131z"/>
	<rect x="612.737" y="578.062" fill="#315160" width="7.128" height="2.2"/>
	<rect x="709.935" y="578.062" fill="#315160" width="7.127" height="2.2"/>
	<path fill="#008EA7" d="M628.572,567.469c0,0-0.793,12.376,8.409,13.804c9.203,1.428,18.247,0.952,18.723,2.539
		c0.476,1.586-5.236,13.962-19.357,13.011C622.226,595.87,618.735,571.912,628.572,567.469z"/>
	<path fill="#F5EFDB" d="M653.801,571.912c0,0-3.967-9.361-12.852-7.933C632.063,565.406,658.808,582.199,653.801,571.912z"/>
</g>
</svg>
